<mxfile host="drawio-plugin" modified="2022-03-13T20:15:08.133Z" agent="5.0 (Windows NT 6.2; Win64; x64) AppleWebKit/537.36 (KHTML, like Gecko) Chrome/89.0.4389.114 Safari/537.36" etag="Sisd1mTYG_9MXmkYrfx7" version="15.5.4" type="embed"><diagram id="CvqmObE30lNKDXTIfazw" name="Page-1"><mxGraphModel dx="1726" dy="735" grid="1" gridSize="10" guides="1" tooltips="1" connect="1" arrows="1" fold="1" page="1" pageScale="1" pageWidth="827" pageHeight="1169" math="0" shadow="0"><root><mxCell id="0"/><mxCell id="1" parent="0"/><mxCell id="0Nkzdif2Izn_vl99Jlwj-4" style="edgeStyle=orthogonalEdgeStyle;rounded=0;orthogonalLoop=1;jettySize=auto;html=1;fontFamily=Comic Sans MS;fontSize=20;strokeColor=#006658;fontColor=#5C5C5C;" parent="1" source="0Nkzdif2Izn_vl99Jlwj-1" target="0Nkzdif2Izn_vl99Jlwj-3" edge="1"><mxGeometry relative="1" as="geometry"/></mxCell><mxCell id="0Nkzdif2Izn_vl99Jlwj-1" value="ms-order" style="rounded=0;whiteSpace=wrap;html=1;fillColor=#21C0A5;strokeColor=#006658;fontFamily=Comic Sans MS;fontSize=20;sketch=0;fontColor=#5C5C5C;shadow=1;" parent="1" vertex="1"><mxGeometry x="351" y="510" width="120" height="60" as="geometry"/></mxCell><mxCell id="0Nkzdif2Izn_vl99Jlwj-27" style="edgeStyle=orthogonalEdgeStyle;rounded=0;orthogonalLoop=1;jettySize=auto;html=1;fontFamily=Comic Sans MS;fontSize=20;strokeColor=#006658;fontColor=#5C5C5C;" parent="1" source="0Nkzdif2Izn_vl99Jlwj-3" target="0Nkzdif2Izn_vl99Jlwj-5" edge="1"><mxGeometry relative="1" as="geometry"/></mxCell><mxCell id="0Nkzdif2Izn_vl99Jlwj-3" value="" style="image;html=1;image=img/lib/clip_art/computers/Database_128x128.png;fontFamily=Comic Sans MS;fontSize=20;sketch=0;fillColor=#21C0A5;strokeColor=#006658;fontColor=#5C5C5C;" parent="1" vertex="1"><mxGeometry x="370" y="620" width="80" height="80" as="geometry"/></mxCell><mxCell id="0Nkzdif2Izn_vl99Jlwj-48" style="edgeStyle=orthogonalEdgeStyle;rounded=0;orthogonalLoop=1;jettySize=auto;html=1;fontFamily=Comic Sans MS;fontSize=20;strokeColor=#006658;fontColor=#5C5C5C;" parent="1" source="0Nkzdif2Izn_vl99Jlwj-5" target="0Nkzdif2Izn_vl99Jlwj-44" edge="1"><mxGeometry relative="1" as="geometry"/></mxCell><mxCell id="0Nkzdif2Izn_vl99Jlwj-5" value="Database Transaction Scope" style="rounded=0;whiteSpace=wrap;html=1;fontFamily=Comic Sans MS;fontSize=20;dashed=1;dashPattern=1 4;verticalAlign=top;fillColor=#21C0A5;strokeColor=#006658;sketch=1;fontColor=#5C5C5C;" parent="1" vertex="1"><mxGeometry x="15" y="750" width="790" height="290" as="geometry"/></mxCell><mxCell id="0Nkzdif2Izn_vl99Jlwj-6" value="PurchaseOrder" style="swimlane;fontStyle=0;childLayout=stackLayout;horizontal=1;startSize=30;horizontalStack=0;resizeParent=1;resizeParentMax=0;resizeLast=0;collapsible=1;marginBottom=0;fontFamily=Comic Sans MS;fontSize=20;fillColor=#21C0A5;strokeColor=#006658;fontColor=#5C5C5C;" parent="1" vertex="1"><mxGeometry x="58" y="800" width="200" height="150" as="geometry"/></mxCell><mxCell id="0Nkzdif2Izn_vl99Jlwj-7" value="id" style="text;strokeColor=none;fillColor=none;align=left;verticalAlign=middle;spacingLeft=4;spacingRight=4;overflow=hidden;points=[[0,0.5],[1,0.5]];portConstraint=eastwest;rotatable=0;dashed=1;dashPattern=1 4;fontFamily=Comic Sans MS;fontSize=20;fontColor=#5C5C5C;" parent="0Nkzdif2Izn_vl99Jlwj-6" vertex="1"><mxGeometry y="30" width="200" height="30" as="geometry"/></mxCell><mxCell id="0Nkzdif2Izn_vl99Jlwj-8" value="customerId" style="text;strokeColor=none;fillColor=none;align=left;verticalAlign=middle;spacingLeft=4;spacingRight=4;overflow=hidden;points=[[0,0.5],[1,0.5]];portConstraint=eastwest;rotatable=0;dashed=1;dashPattern=1 4;fontFamily=Comic Sans MS;fontSize=20;fontColor=#5C5C5C;" parent="0Nkzdif2Izn_vl99Jlwj-6" vertex="1"><mxGeometry y="60" width="200" height="30" as="geometry"/></mxCell><mxCell id="0Nkzdif2Izn_vl99Jlwj-9" value="totalPrice" style="text;strokeColor=none;fillColor=none;align=left;verticalAlign=middle;spacingLeft=4;spacingRight=4;overflow=hidden;points=[[0,0.5],[1,0.5]];portConstraint=eastwest;rotatable=0;dashed=1;dashPattern=1 4;fontFamily=Comic Sans MS;fontSize=20;fontColor=#5C5C5C;" parent="0Nkzdif2Izn_vl99Jlwj-6" vertex="1"><mxGeometry y="90" width="200" height="30" as="geometry"/></mxCell><mxCell id="0Nkzdif2Izn_vl99Jlwj-14" value="createdAt" style="text;strokeColor=none;fillColor=none;align=left;verticalAlign=middle;spacingLeft=4;spacingRight=4;overflow=hidden;points=[[0,0.5],[1,0.5]];portConstraint=eastwest;rotatable=0;dashed=1;dashPattern=1 4;fontFamily=Comic Sans MS;fontSize=20;fontColor=#5C5C5C;" parent="0Nkzdif2Izn_vl99Jlwj-6" vertex="1"><mxGeometry y="120" width="200" height="30" as="geometry"/></mxCell><mxCell id="0Nkzdif2Izn_vl99Jlwj-15" value="PurchaseOrderLine" style="swimlane;fontStyle=0;childLayout=stackLayout;horizontal=1;startSize=30;horizontalStack=0;resizeParent=1;resizeParentMax=0;resizeLast=0;collapsible=1;marginBottom=0;fontFamily=Comic Sans MS;fontSize=20;fillColor=#21C0A5;strokeColor=#006658;fontColor=#5C5C5C;" parent="1" vertex="1"><mxGeometry x="299" y="800" width="226" height="210" as="geometry"/></mxCell><mxCell id="0Nkzdif2Izn_vl99Jlwj-16" value="id" style="text;strokeColor=none;fillColor=none;align=left;verticalAlign=middle;spacingLeft=4;spacingRight=4;overflow=hidden;points=[[0,0.5],[1,0.5]];portConstraint=eastwest;rotatable=0;dashed=1;dashPattern=1 4;fontFamily=Comic Sans MS;fontSize=20;fontColor=#5C5C5C;" parent="0Nkzdif2Izn_vl99Jlwj-15" vertex="1"><mxGeometry y="30" width="226" height="30" as="geometry"/></mxCell><mxCell id="0Nkzdif2Izn_vl99Jlwj-20" value="idPurchaseOrder" style="text;strokeColor=none;fillColor=none;align=left;verticalAlign=middle;spacingLeft=4;spacingRight=4;overflow=hidden;points=[[0,0.5],[1,0.5]];portConstraint=eastwest;rotatable=0;dashed=1;dashPattern=1 4;fontFamily=Comic Sans MS;fontSize=20;fontColor=#5C5C5C;" parent="0Nkzdif2Izn_vl99Jlwj-15" vertex="1"><mxGeometry y="60" width="226" height="30" as="geometry"/></mxCell><mxCell id="0Nkzdif2Izn_vl99Jlwj-17" value="product" style="text;strokeColor=none;fillColor=none;align=left;verticalAlign=middle;spacingLeft=4;spacingRight=4;overflow=hidden;points=[[0,0.5],[1,0.5]];portConstraint=eastwest;rotatable=0;dashed=1;dashPattern=1 4;fontFamily=Comic Sans MS;fontSize=20;fontColor=#5C5C5C;" parent="0Nkzdif2Izn_vl99Jlwj-15" vertex="1"><mxGeometry y="90" width="226" height="30" as="geometry"/></mxCell><mxCell id="0Nkzdif2Izn_vl99Jlwj-18" value="quantity" style="text;strokeColor=none;fillColor=none;align=left;verticalAlign=middle;spacingLeft=4;spacingRight=4;overflow=hidden;points=[[0,0.5],[1,0.5]];portConstraint=eastwest;rotatable=0;dashed=1;dashPattern=1 4;fontFamily=Comic Sans MS;fontSize=20;fontColor=#5C5C5C;" parent="0Nkzdif2Izn_vl99Jlwj-15" vertex="1"><mxGeometry y="120" width="226" height="30" as="geometry"/></mxCell><mxCell id="0Nkzdif2Izn_vl99Jlwj-50" value="price" style="text;strokeColor=none;fillColor=none;align=left;verticalAlign=middle;spacingLeft=4;spacingRight=4;overflow=hidden;points=[[0,0.5],[1,0.5]];portConstraint=eastwest;rotatable=0;dashed=1;dashPattern=1 4;fontFamily=Comic Sans MS;fontSize=20;fontColor=#5C5C5C;" parent="0Nkzdif2Izn_vl99Jlwj-15" vertex="1"><mxGeometry y="150" width="226" height="30" as="geometry"/></mxCell><mxCell id="0Nkzdif2Izn_vl99Jlwj-19" value="status" style="text;strokeColor=none;fillColor=none;align=left;verticalAlign=middle;spacingLeft=4;spacingRight=4;overflow=hidden;points=[[0,0.5],[1,0.5]];portConstraint=eastwest;rotatable=0;dashed=1;dashPattern=1 4;fontFamily=Comic Sans MS;fontSize=20;fontColor=#5C5C5C;" parent="0Nkzdif2Izn_vl99Jlwj-15" vertex="1"><mxGeometry y="180" width="226" height="30" as="geometry"/></mxCell><mxCell id="0Nkzdif2Izn_vl99Jlwj-21" value="Outbox" style="swimlane;fontStyle=0;childLayout=stackLayout;horizontal=1;startSize=30;horizontalStack=0;resizeParent=1;resizeParentMax=0;resizeLast=0;collapsible=1;marginBottom=0;fontFamily=Comic Sans MS;fontSize=20;fillColor=#21C0A5;strokeColor=#006658;fontColor=#5C5C5C;" parent="1" vertex="1"><mxGeometry x="562" y="800" width="226" height="180" as="geometry"/></mxCell><mxCell id="0Nkzdif2Izn_vl99Jlwj-22" value="id" style="text;strokeColor=none;fillColor=none;align=left;verticalAlign=middle;spacingLeft=4;spacingRight=4;overflow=hidden;points=[[0,0.5],[1,0.5]];portConstraint=eastwest;rotatable=0;dashed=1;dashPattern=1 4;fontFamily=Comic Sans MS;fontSize=20;fontColor=#5C5C5C;" parent="0Nkzdif2Izn_vl99Jlwj-21" vertex="1"><mxGeometry y="30" width="226" height="30" as="geometry"/></mxCell><mxCell id="0Nkzdif2Izn_vl99Jlwj-23" value="aggregateType" style="text;strokeColor=none;fillColor=none;align=left;verticalAlign=middle;spacingLeft=4;spacingRight=4;overflow=hidden;points=[[0,0.5],[1,0.5]];portConstraint=eastwest;rotatable=0;dashed=1;dashPattern=1 4;fontFamily=Comic Sans MS;fontSize=20;fontColor=#5C5C5C;" parent="0Nkzdif2Izn_vl99Jlwj-21" vertex="1"><mxGeometry y="60" width="226" height="30" as="geometry"/></mxCell><mxCell id="0Nkzdif2Izn_vl99Jlwj-24" value="aggregateId" style="text;strokeColor=none;fillColor=none;align=left;verticalAlign=middle;spacingLeft=4;spacingRight=4;overflow=hidden;points=[[0,0.5],[1,0.5]];portConstraint=eastwest;rotatable=0;dashed=1;dashPattern=1 4;fontFamily=Comic Sans MS;fontSize=20;fontColor=#5C5C5C;" parent="0Nkzdif2Izn_vl99Jlwj-21" vertex="1"><mxGeometry y="90" width="226" height="30" as="geometry"/></mxCell><mxCell id="0Nkzdif2Izn_vl99Jlwj-25" value="eventType" style="text;strokeColor=none;fillColor=none;align=left;verticalAlign=middle;spacingLeft=4;spacingRight=4;overflow=hidden;points=[[0,0.5],[1,0.5]];portConstraint=eastwest;rotatable=0;dashed=1;dashPattern=1 4;fontFamily=Comic Sans MS;fontSize=20;fontColor=#5C5C5C;" parent="0Nkzdif2Izn_vl99Jlwj-21" vertex="1"><mxGeometry y="120" width="226" height="30" as="geometry"/></mxCell><mxCell id="0Nkzdif2Izn_vl99Jlwj-26" value="payload" style="text;strokeColor=none;fillColor=none;align=left;verticalAlign=middle;spacingLeft=4;spacingRight=4;overflow=hidden;points=[[0,0.5],[1,0.5]];portConstraint=eastwest;rotatable=0;dashed=1;dashPattern=1 4;fontFamily=Comic Sans MS;fontSize=20;fontColor=#5C5C5C;" parent="0Nkzdif2Izn_vl99Jlwj-21" vertex="1"><mxGeometry y="150" width="226" height="30" as="geometry"/></mxCell><mxCell id="0Nkzdif2Izn_vl99Jlwj-62" style="edgeStyle=orthogonalEdgeStyle;rounded=1;sketch=0;orthogonalLoop=1;jettySize=auto;html=1;fontFamily=Comic Sans MS;fontSize=20;fontColor=#5C5C5C;strokeColor=#006658;fillColor=#21C0A5;" parent="1" source="0Nkzdif2Izn_vl99Jlwj-28" target="0Nkzdif2Izn_vl99Jlwj-61" edge="1"><mxGeometry relative="1" as="geometry"/></mxCell><mxCell id="0Nkzdif2Izn_vl99Jlwj-28" value="&lt;font style=&quot;font-size: 20px&quot;&gt;payment-request&lt;/font&gt;" style="sketch=0;points=[[0,0,0],[0.25,0,0],[0.5,0,0],[0.75,0,0],[1,0,0],[0,1,0],[0.25,1,0],[0.5,1,0],[0.75,1,0],[1,1,0],[0,0.25,0],[0,0.5,0],[0,0.75,0],[1,0.25,0],[1,0.5,0],[1,0.75,0]];outlineConnect=0;gradientDirection=north;dashed=0;verticalLabelPosition=bottom;verticalAlign=top;align=center;html=1;fontSize=12;fontStyle=0;aspect=fixed;shape=mxgraph.aws4.resourceIcon;resIcon=mxgraph.aws4.managed_streaming_for_kafka;fontFamily=Comic Sans MS;fillColor=#cdeb8b;strokeColor=#36393d;" parent="1" vertex="1"><mxGeometry x="-91" y="1230" width="78" height="78" as="geometry"/></mxCell><mxCell id="0Nkzdif2Izn_vl99Jlwj-47" value="" style="group;fontColor=#5C5C5C;glass=0;sketch=0;shadow=0;" parent="1" connectable="0" vertex="1"><mxGeometry x="322" y="1100" width="176" height="150" as="geometry"/></mxCell><mxCell id="0Nkzdif2Izn_vl99Jlwj-44" value="" style="shape=image;verticalLabelPosition=bottom;verticalAlign=top;aspect=fixed;imageAspect=0;image=data:image/png,iVBORw0KGgoAAAANSUhEUgAAAIAAAACACAIAAABMXPacAABDvklEQVR42tS9WZNl2Xkdtta3z7n35lyZWVlzd/Xc6MZIECAAioBAmRQnU7IVGmyFHVY4wsOvMPELbL9IEYqwXzxIIStkTVSIEkFKIAiCBEBiInpCjzXPlXPmvffsb/lh733OuZlZPYCNBycqOhKVWfeeu4dvXGt9lITyJQkE2r9g+wPkvz/xv+UXiAgQIGD44F+CA4RANGAjDNQ9AQyA1Hsm9B40/bWU35dIj/MB3x4A6A4HaApHPt3MFzXz7iJEsP+87/fdKSm9geSx/6If8PEJM1l6SRJABAI+wCo4FKW0eYQgSjzpwz/igxgcUloaEkD9gd5dcKZFdwKIYdpfYh09UpzZABhlkVJ+egbqfR4CSpIANgSACn+hL5WjKLAhqg+wBOlI2fte8Pd6KVHk+38lRTgh+8lXoPfgDlg2J++5B5QkOOE3t15+dedrDB/4nQm4vLbhqeriqYVLq6PH57lWHskhS5vyXgurA9/80e0/3IpXzEQfRlIzn8+UF5RpgcsLJoMjxrBQr6zNnzu9cHGlWq8wBCA1JIXAYmLeZc/GNvnz2z+4sX9FtZtX/d/Xkb1U39wQkGQOqzlYnVs5t3j67PDMos0Vs453OQpVuutgdf3w5T+5/Y+qOihfig+0BSLCwObrML82vPzE/Gef3/jCqfpxIEgiCL7b5xdEsMH4zx/+2+vjlwIHcAoCLH1OkVAAIFo6YXkJZMn8UcFU0azmaKk+fW7x8Y+c+uzTp14Ych5ypxtEWHmIow8jiiKhHz383vc2v11XAzWW1qUsdCgrEiB5/numrQeZfoEKwaphPXe23nj+1OOf2nj+/OgsRblIgGlZrb8K3Y2zyoaD+aquPvgG5E/hHB9w9+rhrVs7f/7q5u88t/7lj575G0u2Ah1AI7yXQSCquh4ONB84gFvrRZT2N1lX0AGJAikTKKYbQUARsfH9zcmth3fuvPbg248tfu7nzv/K00uXQwRgMOZLpUcahqqqB4PhwAYKFfLLpn+T310CRG/votI35oScpEmcxvE7k2tv7N78o7s//vzGi79w4aMrYUWeNoqgl1DliNEXJHePEPQTeGOZaQE2QYgedD/e+ubNf3pt65VfeOzvnZt7yuWm8F72UHLIJQpydaEZBZDp55BywMP0E9FJCfAgEhQqqrIJ+Orut66//uc/d+4vf+HcXxtoCIiKyUceM4hs38wdTqTYJC2vehFXegInweSvBNHzr6cQjgBQRwQ+iA9+78ofvfHwzV97+hefXLhoLjtmBeyIKRB+suMP0I17QdPKZQ6jc7Rz7fBPfveN//nN3R+K5vD3egkrtzSfrGQBRIh0wHN0RNHAFGzl1ZforKgBfegKLlRNVVfVftj5+tXf/Tfv/JMt23RGgUA40YYWw2SElZvXHn86LApRcNLNxHz5smciQCON2d2RstEECw04tJfHN/7xn//Od7dej8ZuV0/cgL9g6DExaxgEAwTEqpljPbyN17721t+/tvsdo+E9LhZnDmO5/tkKi1LaQ87E355CyCibiI3Jg9zksrE8AIsa8vt3/vDrr//bA+17CrPgRDwxCyhvxDbaLzshtEZ/JoTJhz+9hKdUheYaTFlPrZKwgPqWPfztl//Da1tXaOWEfegbQMAUCEP+E1wGjwOrd+L1/3jtH96KPwQoNVCEp0ThaECWXKvDnIEIEIhgMjnhBIwIlEEmBYelvIEwU7AY0oVwUqSjJmRywMKg+s6DP/zWzf9obJTsxJEPnqxcioYoEY50kgwIZUusHAijjDKkz8tKrIQq/bJkrjYygwPuGLG6Hfb/5Ztfvzm+S9J7NuZD2wAAhKd3TAdK9JTihCo8GF/53pXfnmAP6R7wxIioH9i1rq9cBQKytFIogW05qigrYk6WhWM6vXBKwEDfuf7NH+++TEKO4ymn2B72o2cc3v9LK5fD0HPOx+8HU1IIxkB3Dizc2L/31Tf/9JDTfhb3YW7AI1JkRU5DhSub33pz64+RDBSnJ7+1Zj8M4aBnx8beMqUdbr2VKXsN9oN0wRyIVISCD+7X979x42uTeEjAj92/maKCessqdEZDVjKtnMA6keKiXnzb3pXkwCigMaumYl196+GVH9x7k2S7Az/NDcgrYg6A2rfNl+7+3gE2weoRzqAXXCOZkXLSkZxe/nsVm0Ba/giimH5kxXmWjAEkgkRUeHv3rde3XqPRxEc/dABCiQgIkLSyK2nFjCAsyKy8r+SUo70E2XmYAaZkKkU37obpt2+8uq8JU6D1U92A9ERQAKpGoalHt/dfubv3KkAp4JFBEXv+rXf6yg1wFRvXc5vdNyy3X4gpnhZFRNOgmZ820x88/LOpxsGrdytrpQOerOlsaNAmxsq7jt7N6CfnVsKz/ATRCGnO7K29O+9s32n9/oe7ASp/0MtTCJCiabDnO1d3XyolwBOqoSnEVEo7lS5ySKdPME9HMh11kCo/opVUmVA+bkD5HRhFEcGrUNm1vbcfNveTaTkSBRkkIjInegI9GaT2UipAFEJnXkQpqHxMlT+kGYxuAugGMJKUVbJdTV7bupaDfv1UNqC1J6HYB6RU3Q239t6OiCc6YYd7TlXN5anSwM4rQMUmIK9sz+9lq225nlc2oDjJkDfYtDvdvbt3F0dCYgqQCQA9lZpQdllWAuJUjTCh5+dl5XVmIoh8FHKxpH8/TMSV3XtTjUHqp2CCSnlE7BVyk0GPIPfGD/abh3hUTpDurKfjyFLQZYrnev4w+2GxzYZaFwKRTqRwNjkDlQRPwcY+vbt7/z3zwTa9PxLzOPOlaCOnzmm1rotwIUrKuWS+tEpVCNq9g92tZpyKlB/uBljP7MysiEAStPrAHx42W+m6H9065n+bM6+8uNm15kPNXglsJjKxlBO1IXAJhNIDmGiASRaJ/Wb/WLE+FTFytQxkLwm35MoEykpATMjblKpLmJPXhczV+/j5lZl2BbSt5vAgTtPTVx961Nm3GAC8l9BD1RQH47j36IIYIZA57EmlNwiuXA1qY578H6WzX365uEQRVHckczlBlTzS3fI28RFhaOqpzDSDnPlsneR182nzFFwKniuv7LvrfgdxKlfZvSqtDo90+D5gH2/W/PWSKSIXgUVJIh1yRpSfnfSK6b7HnBYpZVtisqcsxo2Ecok41QIs1+tyQ07l2BbLRsCDh6jYlth4vBh3/DCRs9mWjsU8+XsC8vR05rM2IDsZWnmL5NsgoMqOkzA49ZO73C6AI3rBT0llBcEFSINH2b10pZ3mhCm73HRQUjyjkukoG08yx0WlIasccQkkXOnSKKX+5tbUPnLjJGC2o40jh0YEZbnWipDcTDJacpu1+2X1S+yUgzeWaodMUjptzDshCJxtdSq3Gn5ir4s2eyzbUMyFt4WE927W9407Z9sS7dkoGzxj61CSL84W9YoRS9kQT+rmP6KshXQGwLbYcewjl2wr7Zno6hslm22odRWnGScPVF17WYG0D9TQnw32ux1NXjcHczneJlI6Kj7647dxZCgu2mazG/bsfn6pmG5/a/H7vybl7S/RgQCnIuPRjyl1tkIlcKK1DkwqDWvM7LQspR1wta7IuuVWd6rKgUkG+aSOWAiDn/z492I19b2/IGY0iZSyYiutseNRUCBD13ji7Iuz1HnYfqq2oJO8RS9dyImFlaeyUpYhiclkrJOCAKNVdS11hgigSyQJ68U8JbdhLlyrV0dR8Xl9E1eukamft/cyYQEYhgUiAKLs/TqDLt7vmtfFB2bojLwtCoVUiY1xesJVEgZWD8Kce4u56RUYVFIbMq2mK4Mfcr7T1SpYfOzxOqUBEq2JUfLjT0DYXDWXXGFOLNKO6cjq5xaMSoRWAgfmd5/JD3rVegIy7zxHdsdI1bHV6ty8rTmmVBVSG/CoyRZytTm9QH6OEuoZYFSgTB7ghpRK0ihjqqFbnPp0v9lOgcmR6LPGcLk+S9XiVCC9lP5zpSG9vkEGT+7dAiqU6jzh2RIJctCNXV1aoEMBEDHYnRxOddAvp7ZNx7NhfRjrGNJBNtDkQb2OdL7fpJGlbR9SGdxZQk+JnqKDkgSkVyt1Echaj2vleGppfmNpsOHeeGicJc94lOkX1U921HmefDeJfilfYqqhOeLm+D4Am/X5AoDq7NL52k1okPoqOFIH7lk5onj4lDS08Ws2xJ5L1m3DAJ5+Qdqd7O/HA8wmY+mbjZWNubDQ4MTInOrV+V2InUvoirLpHX3GdZ8YtnYmSAQkG3Ll3MILFgeR0UkwdVfeNeAp4aCX9XL1Oog94IZAWYrG/N7+zWkGMR7dgkuLTyzbCqQuFmKb/uQz5eljqtz6fDbTeafn9+3ypuKT6DQXg7jj+/enW22LvVgVA3B2bmNjdCZDBLuPYL32pIl0pTcq+83OVKprbqdqUpcqKttW9tvCObwFRVRPnfr8SGuQQSH4I45/Z+BMsjYE7OXcygvYb0qQkYGqSN2f3NrT5vEqhhxnhpcvLb0Qp4M+IKW1+6k31S6NukoDnXSYK0Us1u8flNoCXSawQtiN+3f2HhQ0aolKCMlXbPH5taerRuyvV+tmWc6T2lA1lW+zn2jvXPl3bMu63WU6qSmfzdWFhY9cWn9WUxoqg7U1pz725MjJdUKdHWDbsWrLA2rthugeSD48vP1g7ybyae7BihBNc89d+Gxtyyrwt7KRnVfPrpjlZZnhVq72sFsvMMsLx1JTIhDNrz28FdGw1xsUBDkdL557bm20HKMT/UKmpaKC1EJQ863STCTCI4VPKJWSirU7toCdeZJQaf7jG7+2yNWIcWRFIUimaJhALIWj/rKaZa9reStUEmClzM4IM9BkDocQtLiP7Ws7LwEOee7OCoQHmoCnF1786MrPTnxCy3V/uOgJe9D6MaPIZI1SMOSw1kvnIoR1XXVnA6siZIi0ILuyd/X+9CFVRcYGMdsRBsHPDlZ//vRnESUzqIYGUiCRkDDJ64rZ6/bqJz1jCyj19PMjMcoi6AiR5jQvGD2wi3NIc6G5NPrCJ878apjCbRJZRwyFoVCR04I+byO8XqJ0zOvOpIKpXaeUl1LB39p8bc+3iMCZPJwAhpj73KUvnqmemDbmVR1pziDV5Rf63h69xmFJmnjkMFrrkNJxd1mwcPfw/o833wJpHnoIWtIQoM9c/PhHlp/SQZzWPq6aZAldcrF18m2lId0z73X2+32xHpR6xoOe3JQXUWn4M2f/s2dP/ZKPBRvLxo25NKQsYzK7cNuE3DQXerkocy8ilb8diDkqCE5EimY3D955fedlkIgGOuhQcvtSxPnBU3/l8l+b56pHON3pxz5Y27zNlYZeJXymbnGkQJvKeYSNQ/z+3Zf3dUiaCY7Gi42lsGLzv/HUly8NTsfp2CtPnS/vSuU8Zs3Zbw9oNoWcOaniiSYof2+qgDjC6hce/2+fW/6iHQTD2DgWCNXIUJkc8CZUSG7b9rxujj3Yf44M6XGDA0HVlPs/uPNH+9hK9UtHB9kkgMaeX/nULz3166emq+EQRokxsxi6PpQJjGrbhy1UrQ1eDWij6fI7zPVh1eHt7Wsvb75aKjFtUAciwPH43Jnf+OgvPmEbw10agueengEmWupPJESeWhAfWVIW9nraao9jCdBnNiB85StfmWkLUgKHtnhp5cVJ4w92rkcemg2t9YStc4cVvHEpD9BKryp73RJHGEqLirAqgsbNwwfro/Vz80+7IMpkIJ2eWy7E+dHjpxbXbm7f2B7vIgyMFXtdqhZf1cXg/YZ+Ls2nVNbQC9UKGrtyNdOD3Wc2nhthWFo9BekMOHxjsHrh1PkHO1s3DzcVzBhyGCo7dsDLludSFTnbUxMLTgkmIAhfPPfMSj3S0Q0gUsEA0IBLl1Y+sTBa2d2/szt9ODGnhZArOQZUyZalOgkZKGOu1qd2uWX71JZHEqgtoaloDaa7u7tPrj03H5ZT0s1cq2Fux0bbmDt/af3yZDrd2ntwoLECYC4jUQuVYMx+PvezCBKVqaJsYhQZWpNBK+3ZdA6C0TYPdqvh/JNLj7GBAizXr/NporQ6WHrizOVhU93b3dxvxh6oYKXaFtL7Mi0IDSy4UpnlcMCYEhSmZwulIsAvnX16pRr5sRvQJnAEFISzc89dXP3ZkZ1uDg/G0/1JbBqPkdEZI9wFR0Y0izbFwEkllKpI1fAaCJZga22RmSbAONw93Im+f3n145Uqwltwa87nzSkuh9Wn1549u3DOmsHkoImTZuLTCROGO+FCoxAdMVJOyDwGd/qoCYRFs6mxCbkcIoEMrW1szO5tbT62enF9uJxYbk5E0LooXgs2eHr1sUurG0OFycF0PJ7Ext0lV/bMnuEzcnpEAghNoQTmjfLoiGmhBHdEwaQvnX/mVD1qeDJApOPtSIEGQfvx+tX9V2/svr19eG9v+vCgOaCVVFmAMGmmhzhoNJ36NAI0GmsylbGMsrRVErNNQCX4cDr48lP/5c+tfYmNUPUdkjsaQ6VoBBAwxfT2/vXr2+/cOLxxf/xwd3rY9GypiWp02IwnaA40abwxmNdVDAxi3UgI2YsmNFUuZUljPLv0xN/66K9tYFmSGx2qoFwlSyEuEcAGfmO89fb23Ztb925PtramezEqW91MEqErBZaMbMMeCeZQW8JzcT7qf/joF8/NL01Sp/DRHa+ER46Ukblw3aCZ+F70iQjmeo4kd/dJ3Nua3L97eO3O5Mqd3Svbk9uT5gB1kA0cFQu2v6Tf08jam4VlDX7jub/5kcUvSI4Z65kOpVyKUFXuh6MZa9LEKXoVTYETYOKT3WZ/c3/r/t796+MrN3fvbDUHniPN2hEEpYq8EOAA3c0wxmc2XvibT//SnIaFTuROs34OmtprhgQqnmAyiZPi3tHuVs+KFG5WJuvNtA6nxCkb1IlC9q4b0KSoIHctFeHOLpWrZ7Lq3rdTxJ24fefgtSsPXnrrwcv34q1pHStWCaiU2qqEhNqtRjxYw/m/+vx/9dz8C+7RLHRUN0JsBAlmaEFShI60lU74mmDv/sHDNx68/aOtt97Yu3mgwypUphQOQAiMMGASKFo4xOfOfvyvPfULC5hLYUuXGvTbxwkOqpZlZO+Ls3ciI6vl9r6rCepTcNlGmx1Jth9ZyEU3BYCUYCnt8nvTd16+961Xbn/nVryJmkMfuFcxRMjMg4cpWPs0rIczv/7E337y1LP0oBxGFZRB7tK2T5LuJXn886sjs5Cp0Is97L29deNPbnz3x5tv7YcpB6FqahcFJzgxM1CCN/jy+sd+/ZkvLnAUXSHxnokenEG9Tnhp7fVjSvWJe4/CXHkJuAvs4ifkw7wf1rWcqmAQ4t3Dt799+w9fuvftse14qKA6BUM5jzV41IJO/+UnfvnT65+vNJBS1J5pqw4v7YcP8AhqiwSGQ01/+ODVr1375rXDO6yq1HRyhSYkwg0iybG9eOrJ33z2L12sV5tSb0sgIX2gXu0H+ToSBX2IALm0yak4aqN67flTn1yf27h2cGUzbtUMwVsYsyQqcNf23rn/9s50Z23x9EJYTOY/k34YP/gG5BgxAWJqVBfnzzxz+qnY+LXdWx688oRsYWPmCAPZ4SDc2N+8cv/GcG6wMbc2YPHDVlwt//+zAWUJQEbSU/xxev7i46tPHG5P7x7c1rCh167SRJSRVROmN7avXt28qoFW59YHHACQiwkRTv5kR4FkZKRjkfPPrD05qpeuP7i3HWIMDKB5iGYuVZEDcLvZe/n+lf3dg6XFxcV63sjUdcwn6qe6AYI+hIN/BEmSOwKMhFzLPP3U+gsPDjZv795k6Mr6RKhiLQK1tpvtt+6/eX3rejOIc8PRyEZkbuV3BpPv/QBHTCIJOAPt8uL5Uwurb927ucNpRTOhIQVUIgWFahLw+u6dH92/8mCyszScXxnMGTPHlS2FlCf6S35QS1V8gD6MO1ba5G1i398FT8jBSAVu+4OvvvEvfrj5bQ5SnyuITuUCeiquHXoz1OjS4LFnV597bO3xC3OX5m2B7+8xlKntnIGQEaI8l+Ttuw9f/6ev/8dd7YF00cCJmZvVkVVErDCOQqP1sPDs2qWPr16+uLxxargwnyu47wEWdHjJfnM411/a/kIzSpRTtuM3tiZ3mekrhHq05kzVjEV6oGuBEUaxDoNBNRxxqbZhQI0eRb8XNOQVcbnR9prNf/Xjf/zD/e9VdRWaQcIrtuUdlxLkRo3gGAyGZ+pzZ+fPry+snxqsLVQLg1B7hzWjOefCaFgP58JolB8gH9UEWjtyN+Si8Y/vvfLPXv+D/TCphSa9b8bEydJpIBtXjLHm4NRw6exo6bHFtY3R0lI9N1+PzCq1Vs7dGOaHo3kbzIeqzmFABOAyI0vI0VuIbgO8oVU/vP3v/sOt/y1UVX7wFv9UuHC57NUr+SrVYWRmVbDhKJw+s3D60uKTjy89v1pdIELOXwhgmnsjOc11M7s1vfJPXvk/70xvVCFIonJlLXHhmd4xo5o1xliSKVReD2yAMIj51VILSANyiLnTg41LSxcvrz3++OL5eQzKjZwysxh7V8I9mv79tW//u7f/tBnR3EqPkw7lxk5mt5vDoiPKU4FzyHpoNc1aMGTaroFVc/Xw3NLqi4sbz6+dPTucAzBWDEwEBYT08XoXgi5BE3LwZ3f++e/e/IdWh4wRVer4dOTpzJDOdqbVSMgdBhddDZs4p/nV+oknNj756TNfWK/PuAqKqr03Ekk0QsXvbX/737z2zw+rXQJQSG2vVDq2HIDmvmsqsamg1CR5T3/Cgak5FBhDiGHe5i4vn/vUhU+9eOq5eQREzyW7fjQumWPfxv/Hy7/3vc136jrIU0ciYQfY402ijpVEt1xfFJig/lkmhJxaEASnCYgC7Pxo8WdPX/zS+afOjeYR0/sxMtNr2sMQfusrXyEcDNcPXrq6/b2KlTkrMcAIC2CQBTDAAlBJQQhAJVQF52a5Es3AYLXFKm779jvbb1y5/7Zqrc9v1Bj02BYlliAUcXruzM50+/rWdVaZhNRh2Sh1vYTUdfJIj4mIbQEYwSpiINaGeqA5Y63afMBDm9we33/t7lv39jfXlk6v1PMZYtXvbhNyDqxaWVx5487VPTUkvXPk7GA7solxaowp9RJhhS9PE81gA7cAVrCKYcCAUD3Q9OXN26/euWnDuTNLywORLrdSbGG7Ab/1FQqgXdt/9a3d78IsZpBB4tgSSNIIEENkSLosnjqFMEdwWFTwXIWvhQFJq6ebdvPKnTd8Gs+fulhzdCSvdzaAKtUri8tvPHx9z/dKYSvX9525iJ8KmS1OjQqJnyQ64GLqYUTQnZDDPAQNiNFh5df3bly9e3Vlae3saBVSewmYLoER0qnB4r4fvrp53ULo3RLruupMLXkrUY6V0nfmbGT2YOGUeaZF0Op6q5n+4P7Nh83u0+tn5hgiM7qvtwFf+Qoh0G7svfbOzndRKvugQRVhQupBW6KoFVOeqHShUB5ZFLOYlTVktBqma9tvbU4ePrH2TO0j0SOjIYHmTAbBl8Kpw7j/2s4rNWvzwKLTwAL1Aa1ILIQCVS8UsAK+E80Zun5Ziemsqncme69vXTm9uHp2uK6YcRGUwFLQIdfnll95cO2eH855aLK+UK/3KwiBAmGpX2RuOTXJLi5EGmi5PUeLMJF0MlSR9vrmw4OD8cdWz1RGCdaLCOwYT7cln/T6q7nv6IUS0AJBUoqSQc9qiSsJax1rKGjoL935wdff/v1JGAO01FvPkPok3IAXzn58oz43dUWD0zOe6khXPeNxch+w4B5YDFeLQrRCyBBFRoR6sD3e/+2Xvv76/nWGRD5OzZNkCijp9GD5E2eeCpFTg9N4DGYiyJkhfn28V9sNnQGheqs1R5cojsL8129d+Ufv/HAKBMJNj1JL6WPZ+iIuvS5rx1VnT9fCZkxnjugJ0YnJ3ORbd77x/fvfTj3Hfr5nMDg2qrMfWf5EVIKNeNY4OLmrPoM1AouMljp8E45Ag8RQ11e09duv/9FW3CWz2eqRyQngZ04/edoWDwjvBIhO6qqDR/kBHeSeZA8j1JLXADp9MP87t6984+ZVcqb+Zl0RMXN9Wixbywfq2CA9hZgei7ylguQzkuNXT2/kwU3jwd43r/7Bzcl1kp4wVOlGw2QKCM+uPj/H+fwiBf9zUlc9h3zK1LsCxSFnWXOZXEFRQCNoZD/evvHNGz90HkW9pgW7OLf29NIZuawFmve66kdQfi0CzBOPtWxC6VCULk1qt4gT89HUFIe//c5rNw4OQmZ/zN6AdMvaAD83FU7iqssTpE/HNWaKQpwJjBYBMx+YVxXCrenV79/6s1KO7w6sWyPo/PL59bl1TGAZfBASX1U6IT+nCvqhU985bjSsrV9HeD2lBuFPbr52bXyfRvqRwqlqhKfXLtTOkATOjjFVj4FiWuRkbo3rBMJwyyeME9O8Rlcm06/efNt7HRprmTOpX1wkjRKqpwP5zHDVM7jCOq46ZrjqyBpLVYJymgcoWFW//PCl283VALMILyhCQ4CwZIuPjR5vEA0uVCmycZRblfytDAoSxaqcR3skVx1S0fqggrkNFa4329+99+aJ9BBBl5c2Vjg3YcuQpxRK9sMM/s8I3BwoppwRolK9kVaQ6EZlXr9EU4iGaHHI6jt3712ZNiAbxcQhOQp+VuvFQMmO8IQ0Q8DjLAatQFaTtfKQKEFpXQLrB+P7b22/kWGfHc8g9cC5MX8GwaSsRNb6anWA55ZpRLJddEMPRXuEt+Mlk3CSgir++O61/TjmLAclhQOnR0un6oVJdHZswBMXYUa/oFQK0pNYPrjFFWXfoGBADF5ZeHAwffX+vZ4+wkkAdGn2ohWuuma46uxAQbIeTScJUvVwVAUCLMbrD685Io3H20Vri2s1Bp4Q162ZbuEU5cMkrnoWY+y87lGuemHKW+Gu2MRgDHcOtq/tP+x7vhY+PawGqwvLlmO9VAhgn93X553nDDG7SWVMVflvAtO18H3kaM2mtEPENx7c89Lw61TkWrt8UszzSK76LFs6c9VLv7BnNGUQo+nOwb097Z5ADwWWquXahkmghO3pK4JxuS1KkpaUwaSTuOpsuert1aFgkqU++64mN9IGHCtjDmErowXETqNUswSQjgHX4gG9RWWE9vfT4mTrRIJGBjEgkeUtXD3c320i1ZacZlD6OB5mecZk9wCnJ3DV8/EsOi6cQRKmFw+2Ew+2prsg4EfvwKiaH4b5hOLnjEZbNibKAjCZNXccEe49BDk63pblnj5QOQ8VHxzuPKqMvFjNmVDCfOvfPPQkHzop63LvPYuJoh8utg8WSUkWGRw17N54vDttjMGPSBVoJv5NxchWESpB3qzL0YqYaqF2FvkBmY6Vvkt1j+PmcDwdY3BCQ6M2G1bDOElKJjm7VleTae9yOjd2NORImV0OzsyL9VPbqAj5o00TS3C2veVAAEYMtAxnUyc6lYRCy0uxR9gvVpdZda5Uk0rZK6t5dbpnNOJgqqnH9OOqv0gZV6S84CqaSz3tnaNc9YIPEJO2WC4SJNvtrexGVEFdusvjIwivbrJIBiHJBGVqPFsSINPV0Qy7kq1SADKG2WbU3xIFKwmuIiHFjst3wokAzFcDVMGVOjrs4b6sYCJYOGCddcpXo/MHrcYBBLpnIRwAMfN8rAUMVSc54fLYru4tS+Ta8nVncsKOEdfVD9RTTzsm+HiiEZ5xG8UVszNIJ9LEexTieDJXPSW2phwxvldHy8lgmll9tNhsotOUzTZHbKED7cFt18ELEzOfUhTi9HGidt4uFrpvi845zvPrcdVVLGZv+azNyIpPTlKPfG81+jbEyu6rI+nNaOP1zn6JFLO8sWa3RP18MxnRjOJGvzg66wVTebGYsl6Ml3trbVou5XuSmoos8pctXjHnV3C1MtdHz2I1C6QhwZg0gdVWxDpVvMJCbakALcuLCRzZZ5WmiHiGxfl+5IY6tojN5rp27JqWkLQFmeWQ305gT+QWy6Puonoklr5W5kxZrDXIvQAd6sx9i+5OMZhKZ68FqbNdk24DmKMlGCrKPEkppTA77RtLOq6WV5xJly1gv8dgKc2eY5yW0uY08lHQPbVnEJ0P5EmVhplQLYekyT7wJO5KcWMOAzGOzXFJeR55BuSaUZnG0b9Ms8XB3idN4Zkn49mqKihr1fAkNEcFpVYlFmwlqJrCAA+IQp2DHKG3jZbFYIqtsJzrp2PiWX82Re7OGb0HQqgmrBLfLh6rxNZWhWDRDayJ2EV7zpMUYtKtNCnnHEWyNavh5YCtVYkVzdmEAGnPJ0e1IsjQUs5IyTL7U/DceEg3iEDwLli0dotybAy64EqMwbZkiZZTlIR41CMqWfsYc4PFKgykhmyoYHGWdqIeV1/yHO+1dd12oYMnIQex565bChSnsdlrDo9JlxPAgMPFsAxnE+SZ7HBSmaRUJXt8Oc4mKP22RHZL0dCSb8ZN0+iIaEn+fmV+YWBh2slPWALolQtbKPlk4QSiS4nZquO0xeOexmXfFc0StbOaxvLc2ny1CkUBUGU97YtUYS487DYf6Vq4RYvEVCjkSt4MvX8II9ioedjsHhcnEhQQzo3ODn3gVLeLM1W2jquunOtaW5XLpKiWRS32eFvw5H4jBG4eHoxjc6IX2hguLrKO7SHVjNd1oXDBmUrCiRiTZSph3imttHQ59ktk6b6yR1C2tkO6XK+vDx5jkyBgwduCkKyraaiLOPsaSW0NcrarPmO+lTOMeP9gE3A7FoEYcHn5sTkNHI1ohWw8Y/e7D9bp4nRc9SODjWavr6XfltmWT7abw6PlIBLS+mD+8aV1TGMuAvZy3WJ41DvdhYZPc5kDPZmVLkLzXmmawkksSSbxsrkn1p4LsZbSBsw4WG+1UlS46r0AYIYkfFREKIcrnldQd/ceTDDFScqtF5fPbiysKWaMztF4v1WIQV8hxoR356ozaaCFpGgRws50fG97C0BfxVyASzX5zMaFOmdVPaUZ9GUYezzhLFCR/I6K1+0iTh0hseb6eU+uBglrZwL4/KkXV+YvTN0IhFhBWQxGbvR03wsvrqcQUwQmSQ9FNCOdrk4Bnk6XGoTK7M7k1u3JA7TK+5kDwCishLkXzj4LnwMcbAU9TAikWdJCTFz1TiEmt6wTAvgYVz2kd5cnkDBr5zTGN/fuNymfVcHsQGkoxidWL1wYLcZpEwPcaAqOQFVwU9ZiT8UeAwMZkuGl0xRMRg9UEvxN6vpBSd0DYOnae56ygA4flMKslfrSJ9e/WI1Hk3rsrDL6I4V3PYG6frCcbX2eYQF0kvKzeu+ll2usdg53rm/dOFLLIWDmgn38zMcuh42JYgzBjc6uQZhMMGaa4J0ipLPPVT+hjdUixIz2ytatPW9qt24JcgCn8/Xo8+eftgZg1TBEEC7PEX0bcLfSQJ2KdSunLx5TgmilhPBoorYowT698fknFp4a+2GSPW61P3vFn36fOolXqRMVzg7jRK46TEZUDfH6w3cOMUWfIy0HYoTOhVNfuvTpuhmkPpdn4baEMOgHPEeI5zbLVT9ivlDUHeg0o715uP3O3oOs8alWBCuJJOpL5596dnmDh42hiq2BnYEftHhZdNe400rodUESOxMzKVif2WUzsaA0Xy1/6clfPtNckjcpm2u1aHv6ByyzFJL5MyGA78FVzx7FTRXf2r5yfXyL6Wz165kAHJ88+8Lnzn6y2letOo9Kkgpq0drWfLl5OImr3kYdXVe9rZ0Eq/Zi890717xqLYC6JAA4VVV//bmPnUfF8SSRyopCWiqQJISnubKyUQEStP36DlObPnun55tY7DpxAwSDGvkT8z/zy4/97VoLUzQJolm8LmcbzX2u+tGUVcwK8L2ueqqnBjc+mG7++MYbfc0KwIQqiIAPUP/Vy3/p+TNP+mFjCkluzHttr7Y7dJKgZE9VvhcPtTT/JB47sur7d6++fbhD0Nsun3JZ1OUfWzz1Gx/91JJVPnUzO5IDqsid9YV0xaNDbzJF55hI0yMIGq1SgrixeHZpcOrq9lsH8aBizURwJBMOsIjNsZOrSqFsYTgnbIln2bVSrO2GrhloDw/2n1q/fKqaj5KB3rLwDADmbPDM2qXtg/239+9PKwxllMUiQxdSqim2aEbKTEEpNxfNiYTvy7GPUaGHZbMYwv54vBir506fSx30lJO2pWTJLyysrC8sXLl7+657bUOTyYy0FE2XzrtZIvAnXJ5ykCKFnCKoHzUltV8z4hcvbqzXlUN9hkyKJIyUQ+fmL15Yemxra/uO3zms9kMIwWuiSngI8+CoGgvRgiO4hchk7CwyTGkNLZfIs/8hkRS0AYGh2pvsK/pza5crVQmwyg4nRUgjGz65cWng/uDhg22PZlbB3CgyJudMeJIqN4omYzQrLUlkDEeBKXDmmpoJMYR7ezvPrJ7dGM4lFlQ5gulprJIuLSyfXVvf3tm7ebgTDTUrMEwtxFxJKgBR9gBjkOBdJaIvqVcmDgycv3LhzKlBkDhDUXJk6ncKJdcHZ5/aeL6u6r2DvfHexB2e5I8MjQlFqKEgPdNHJ8XgCQXf1qVnwGUpiTfq7v7DjcUzF+ZOT5MMNPulUDbQvMLzpy5dWD6z38T7491DbyQzWVUQcWwzURgVLB0OlS6gZREhw8xgICeCOA22qWmzP37xzMVhgnKWRnm5CoTH86OFj509vzCodw52H0wPJsJwEmoPoBnMECzF2bIUhhoCFcgaClQg0h8DQ/oREAL0Vy5srA0C4gxHrGukpc/WIM7b/DMLH/nIysdODdYivfEmjmOMUU53l8ulKLijAfZgU+VJKsYM0yi6F0lPw1DUxmg6QPNwc/vJ9cfmq3nOwsfZStmBZ0arn9y4/PjKmUWMqoaxiYdNE4UYGVNs6nRH495En7omQBM4lBlMlvDCbeSa6/sTg8kGVl892Kqt/sip06XQXnSdUrGNIHzewkeX1z69dmFjbsGgQ4wP1TSu6B4RGym6RzE60h9P4hUupSkCQiO5EMtyVX74xcdOr9eDXFk70sH10nDzPH4FDAZiD7ub44c7B1tbk+3D6diL2nfCGE6m0+3J/s7hzlaz83C8dRjHYgxmxiDQ5SlS6nnIAODQ488sP/N3n/mNeZs7JqiuXPROCCszgA/94NbB5uZkb78Zj6eNJLTiRdB4Mtk6PHg4PXxwsLczPjxAnAaaVXXuWqfpGIb0mZyCTeinGvzdF3/uF9bPN1LVNQQ91/cByqdATQMwBm5N9m8eHm5P4sH4sPEy9aNr2dhsepMqQl6g9gkdjV86t7Q0qM3r3gZ0o0aLe5elCdMCLU0TeY+2Spxiut3sbY63b27eeW3vjXd2rm42exZspNoRoiWxYVIWogE4GEbb5y+f/ux/8twvjFBJCk4Q0+TaSgDjVEL5zE4iPbmltq+4NT64Nt56897NHz+4c+1wZzd4sMEAISI2uSwRHCESBlNsNsLg7734uY+vrMndrYUCWD9TyT25D2PqhQB6BAVWH4gp39VweZL0M2Z7fBNMru/f/NG9V39479Wb0y1UVUUGJaW+CgqEYhUjwmi//tL5T/7q0z8/RNV4ssZl9Ofs7FkdBVSdSBDvPue9Zvza9v0/u/Hmy5u3t9EMra4cBxUahjpa1pcmvYkXqtF//bHPfmLplGKTDltCgaQ2JGf7NSc9A9//AAb2MBkfvlSB2v/B0m28M7n3jTvf+9M7L+1MdgZVFaGGVWQKWWJjpIfqMHz2zAu/+dTnlsNSI1WdOMRPNlRCruT9CSIKrzy49a9uvPzS9r2R19OqntBrT03znMFN5BdZ/Z3nPvG50+fN5UxzHmgIdPzED/O+ecI/ha+IKUWoSsIvr++9+fvvfPulrWvTAebcEretcm8CJgFQFSd8bunCf/7UF56cuwAgyq0Qjn/Caw50QC5iW/Grd9786tuv7Yyng2oQCSmP0xAYVMunVvuvXP7I3zj39MgAj6LIFMX+tL5+ilIFFkVmCSTI1gdrz55+ymR3H96bIrqlMltoLFBWT2kWrk63Xr1/LdDWF9bmrCpchg/OPy+M3Jz6ElFxHvbC4vpTp87e2t28e7hroYa3rF2jiww7xjfu3rm1tbO0uLQyHFU0yD0rs/1UN0AnGbF3GzlxdAZAcd09KqilOacxKZTJMcLguVOPLY3mXt+6uRUaMwiMNCiY2BDzCHtx+vKDG9e3781Xg8X5hQED28p9rzOBo9Rz9BnQKn1Otj1+IBKM2BiNnt84f/9g7+rullltYjQ40BiEMB9rC/WPJzsv3bq5NZmcml9YrgeBJNzVWSI+Qi6hN/AjJxJFb+eR20dXpBuAaLFHS0gvd4SWr1kZ0uIUe4MlUHCbyoMDlJFopS9KBwzf3XrtX/74a/ewU8PkcNVOK0pIFBhjnPP6meVzn9l45pnVCyuD5bqnoO9CHmXbe7Ck9dbKisee8rD3AheXjHwYp//3a9//49u3UM0JU8GJgTLPgk42kk3ixeH8p06vf/Ls2aeXlpYs9In26DgiYE9ZOb87UJVhaaLsXTfAKQqKnFYYvD/T+p7RUgQUWbWauKaEczQKiM7Kvn//pf/ntT+4P5gGZ3BOLXSxsxfB4ui1h9PDlUurZ59dPnNxYXV5OL9SzQ1VvbtFUHoGMgcC/XHNeRoJ92L831/53u9t3TzVDA0YV5l0lkfB+EC0qMaa6UJVXV5cenJl5clTKxfmRquDeinU9bsuhAuOCEZDbf5u4Ts98cNNr2+/9v373819p6RS1Cr4F70itcSJ/NMOzDSsB6cHp9bm1tfn1tbDqQAgSsyFLsJNLoaYBroLMP3+7e/9izf+2GuZMDUzzUyzNmEaODWqUT1FQBhW9dJofqmem6+GC9WoViij10hgIVTLo/kzc8sX5lZOj+aZDypzifnIXXan2d2m+Qc//OMf7G2POEIaxIN2JrY5GY2Aydl4Q/cBuFzXK8P5lbpaCDYczBXwrYmi+8KgXluaPzc/9/zccCkQaFwiqnfxIMUEmf/hjT/47Xf+X9YGzxX/xmJvzHpG5Wc1lEIlzfUYkbLKw4Cj08ONJ5cvv3D26acXz1YYKSaOrZsLtEhYkjSWnPoXP/76H9z+keaCNRLN1e4oKqeTjQFIqmLmKfuXCsjJ0uqkE9MEozSHanUw9/ipjZ87/fjzq2dXEoiG3eSadgum8prhtZ2t/+VH37nnqBGSFmXOwbwML0OAalFORgV3Y7QGTaQbgmeqVqsbogCN6nBhqfrMyvoXz5y+tFjhuFbIkRsAB0zfuP21f3v1X4cQsjKsrNBF8/9NjzQDFMj8AIMTtMbkZk0Tw1SL1eijqx/5+UufeWJ0Dl6G+xVpBdDcZOKDZucfvPQ7b0zurniYsp0EBQCRFTKYOY2GSNTtAsOCojF3X0GTwcM0YJrwqI2PrPrY4savXH7hhZU1U0wTTmdugsvpYPj3167/X6//qBkM4MrXOnM0E6o8OKraJaihmII3GVAlb5FgryZEgyNrTUybIOn80L58YflXL587E5JkqdQ5wxIF/U9f+S0hGsM7+1dfe/gKQpLkTtI6oUeGlhfaXkdFQ/DCDU/y3IQFBoZqAn9r7/Y7d67MVcOzSxt5NhRpGUDIxNmaD8PRYPCDh1eJCA8FissyjBUdoqbX2HNACiydGYmehsZCQQzgIFQuXjnY+8HdW438yZW1WtYAXhBwBWnmFnFmefmdrYdX9w8rziVEPVWVCn7q7Hth1geXucqytFLU7bC6wpOoWamut9xfvbf9w63DM8tzF4YVGpclxcgZqYLfAtwYruy989rmqyGEniKQ9StK4LH5mUfY0i0uWjBYzXob0x89eCdU4dmlixZb9BhbzDig9fmlqzt3bu5vWag6+HsZlHcEZjI7Q8VKE6FtSGVEt0uVw6rBIfDW3Vu34+HF9Y1lWPA8Ibf1cARGZjY//6NbNycMKV7xVqe6nbHD7q1LeGUzj1Q6/nlOlyDSaBbq+3vj7z+4f3608NjSEPI03chOZMr35lX2p9LxGFe9/wum/t+rFcoi3bzW3tzhV9/65u9d+26slBSHY+FMgIjAnAZ/+dyLQwxTsUsFkv8IBfh+dxrtLyt3/hLcK7kEurshjEfzv3/j6j9743v7TFKoip2wo8EA1yeWVz++tq5mHC1d9x58oZUK6TiXJ3EUuq5nN0o+ghME1ou3D+b+15ff/tbDfbKCkoj8EdxEjs84CyeywpbuFJp6XHWlPlQL1pSzByZEY6oaLMQwrfxfXv+TP9p8RcEK6UOgZ7im9PzKY08vn5/GpnB6ypSDExTg2wdgNy2pbRGrHcvDhuakYrSIubDwnas3/t3bP55WNKHKuS+qIme+CHzh3MVRGqiXe5lEb5ill2FRRRt+5gbk6UVdU95i7s4KYBQWMLoT67//2tW39z0o9BNYe0Qxizoy9+GEzI86DgLsg/fNneZxANYRB19749s3Jg9hTOMCkrQMhSkxYv2x008wd7f6XfUjR/6oYnzLkE1KqG2AQDC4gYhBjbnoh/XC777z1vc37wWS7mKeGAPAjZCeX11bX1mO7kGtSc32UkcRkicrRPYm2GWctsHNp9D0IBwMw/zN7eofvX5r21rOQQ4xwUwIsT6WLYtgwXLfNU2DUYAqyITKs/aTSZSb/Oi0M5MZzMko1RzcHG/+4Y0fNHRrsTUJ0UoA+NjKhTNheT/NFHGTW9LscKRELXPP0/QYiJJFWqtfBZg8s4I9RYdOetaQj/Bgfhv8/SvX9txLrYJt1d+B1Sp88tQpi5panUQaOiZ+4RsnvFsPH1XgujIo0A0KnU48gqeYAEZU0qSuBt+4u/8n93aTpnmcHY3bp34noQh2E+eVUS6eq6d5coBy98dOuBy5IpFuJyKsqe1Ht96+vv8gfeLcBC9sxPXh0vnF9RjdENiBO/peFz3GWY89eZS7Yh3XSmWckEj3MBi+cu/eS/fvwozqJC7bgP/Z1bWRhYgOW9ZBsnESL7OLyqyw3nuwHS8DtZJ6EhzkGPU33rm970cw9bPGp/zjo9y50r8swmqFNz5D7EbnglyIGUFuAszCg2b/R3ff9lljlkqeNcOFxdVBUuRnbyzMDPB2RiEGRxVijiN5i7ITaAgGbQf/4zs3D2YBSZ1gyuLyclWpaTzNT+wN5S2gcOszFfqM1E5IIi8g+zonMgkWIqyqfrjTvLJzCII+bQPKrhWvlDimA94S9a0gSixk/f1WxUHH9XPy9HZXZ9OS2t+0wmtbN3cwJk4YF3px4VTtyex0cOsO7zarENMWLXoKMZal/NR1dTNZnkGsDO6D+uWt7duTCWa1ItIQsTOh2piblwCG2MeysS+4YC0NxoUOm5ElItpgKY+bLAVZAYEQzO97+OHdfQcIl45LNpwwLT2HIn1W5iN8o7Vc9Z6YTVY6qNwY7O7BwwcHm7lXMnsCT88tDVlljdsZfYwjXpetAuAsa27m4fv4fQBTktGDsNXoxtb2kbYiQZfmyY3lJbTRoDjL3Tyh+ykgIe8dPfzdDFs2lVXMYY5omhqqK/cPt0pX0vqaOWrlYZgLPlSWikvKcW0GmFWKjijEZIBrSgTM09jFXnhgsu1m/HC8d6JM8nyYW6jmp+jYkTMKMQld2weeJuJ4b6SXZ8pq0dQpwKwsfkMLCvuxubm/c3wtHQSxVlWNIrPuialF1rSCGxknmhUpSsyKTldFnLGf5ayaFI0mVuDVqR9MIlAd17gvnkftIMIyE49d8IIOmnmUs8jMhi4o2p4RjwBlE2lrcnBi62dg9TDUTVLzyxfMehSBbma2uhiSXbFE7ZO3MXtZHaVpqpY2aaeZHoWUluOwIMrCDAz5mExZYeO0aMN2nBv7Y0Vnyk5MU1MJBRrvxqZpPAHGqhPyOs1MyJ6pDB61PN2wxiQR5sJRkowst50tzZOB6+SmgplZaG1ImGVjdyOeyaQeqBQjzhDzlSUbugmnMO+S/LKjrkdlNcPBIFhVKqyziWo7uKJXd/FCzk5hC/nezXsCHj0W61kdaSNYO4pTiZ5usrY+cYQxWrxuUvCdmavO7LjUoqOz6menJHYinAI9DabegHgVAZC0+j1Ke7rEQjc+PTOBWhGTQiI/lipq9gILgGpaOaozv59V7pC59uy2vH3TnpDPe+2BepJo1TGiXHc28ryYzuse98+Jq555W0mWt8ya6/eN++Uj6V2Gq6AoDpSqoRepApaD1i+Gq33gLiBJFaEiM9NeHRmIR6T0vZm2OjLz/dgQ+QJzpzqO+OyyvHfH0LuJz7ku0n+ItvDZt4A6pl2HVqNEpYLmBdIpdADXI27Gebyl3rubaJH6fctTcMiep0L1dCELbZOtgWLHXm7b9NlGq9WRPCGiKSmDgz1VQ6rTykpXLXcMOxUnSScOtHlXK8SeVEEatp7XrwxjDuV8EYTcTuKqp0paLkP22Dk9rnpf6auTnDt5A4LQlAX33jwr5Ylf7GmXZaSi0+RZN6rQBfKBMPWVvVIZsXFBCEXvZparpUKIN0mWGCE5j8810Ux1zivDPOG753U/AGTGjqsmDsOISi0IzlaDcYLdL1h3n8kP342r/t6Tp2gDVAIbY18tpuOqdxoUOcDt9Biy49URelrLVZ/9FPYIvCCC3NxjeY2S7M+kF8qlYJQG5l8IMVS193G+XqgxmLpkppymqS9iplmNEsxyFmcVYtg5j25+aIrcHyn9Mwz1YjWUK1ZZdi/NkMht9xLzqGTJxbtba3xUctGs7Ko+V73z7SdiONOnmwthCB4k1naGOnXTONW6ei99pfdt999FISYHVwujxWEYQVnfnsSsJiFaItyMRGFnFqxf2jvOVVdW/38klGUIOzVYCHmiatYL7VrQufDQ46Cx3zWynCV1XPVON8v7Ca06Fcfjh+D0wsICQ+Z/lavjrUTEUa9rf/EbYG0Qtjq3ujRacpVT38r8txS7TlWUPVm7MjpYJyrKdHPVlSqsXeFMx4DXuHDqtNEYad7rgOb71I5sOD4zOykL9syU2kt5hN78yPUiAMTV+cHq/JxcWTAeKFownT+T9OgeyQffAKJKHcpTXHhy4XLjjdMHTS1lJWP0hhEbmQYrwHNW6WlibPK6XjQSujihnQJPKOftetQCCM8ubywO5hEhWszZZkhk86zLQSrpq8sSVz2ffU/th2BIXPUyX15Z3tfdIMvDRU/CI4tE5Grg02vzbCQaVTuCG6pYWZojrwClTlrA+1Whej83oOhSvXD62UXON9ZMg0s1NasQk3SYO/UQzirZoDDlTxI2mpFYsONnJxWlL42WPr54Zp9x2sqv58KvlXtmM163SMR3QXym0M7WrpPIOCm9y/wriAzAF9Y3FqtoEXUMgxhC5KRC5Ixo7YcJYe7oFcBTS489s3yZE8XKoRqqSq7LpHcQ1bYmegt6VJet66rrqN7Vu8LZiSHwC+efnDdLTLMkWuNlSszRmKfA61vP2jbEW+fkgHtLnC0u+oSTK0oywvWxxbkX1xYONBnXIZoFt6zPKv7FXe4jNyBlAENWn3/8s6vxVDvjvuimlRm8bXOO1hUb0OeqJ5RKuRZ9rrqO3IBjeQAJx7NrGz+/eqkaNznwaJPPXn0/jzKBRaEd1J646ugpxGSp8dy6gHJ1hY8STkz062GF33ji4nrARIdNQIuS+EDFhg9+A9JD+vSZxcufufTpMAGsKR+sKOeqX49MkuGa5Xe06qa5BMajZfp3TQMcogfw1x//2Pm5lYlHOya/lybUk0WjQugUYjijEOMtj7dolJQUhyfGYJ41WX2q+Onl+b9+6eLCeJymWTqgnk7Gh0sUsJnvWQ2EL1/62Y+vvzAdT42C1JCRNA9ZB62dn5ARelYwI6n/xVZazmUxd9XNaTGL25Rw/gQrkGRjdWFu7m89++IyrZl6pYqwWNo8iZOdGMBWRrdnhRgFFPn9rBDDVqWgDCRS1Y67mA1CzcgAgCHQzPGbT6x/4dzqdBzHHBmSTEAwp/mHTCmanW1GAljG6K8+86WPrj57OImAjaY2bDBTaSgZOWYUYvoZbzdqehbL1k9xdfT6Z4wCJX1q7fx/8cwn5007nJqqKtZB9cDrgVdwTogpS+VH1lPN7ivElIXWLPX40aFLqaNSpgWL/80Ll768PhebvSkXYHCbNkHTwKmZ/zRMUL81dqFa+zvP/8rnz360PmTjmFahqRLDvc3O2vk+fYWYE1UmZ8eq6GQD2k/aAkjpF89c+u9e+MzTNtqL4wbVNAwmVRCMZVQx2kYgO/2YXnskdQG7qQPH0pR3o1q6eK7S//iJS//ppaW56Z6mqjQw1VXkQuO1+4e1AdVxPlJiR6zZ4t9++suXF8999dqf35hs1WRllvgLpTaQa4gFdZyQdFn6nLIka9EqjybqDGmPSoaPWENM9bm1c2c/ufK7r7/69Ye3tp211TISVmfUWMgvnPVqQylMgqUeXsZ2pcFIzsz2sveRQVkDXzf/7z9y6cnVzX/95va17cOmDqyMaOBGhJ/gGhz34NVMNUTtsEhCGmrwpbOfemb18T+98cqP7l25Md060ISt+BNL7Z6eZBWtdckyANHbseTM4yPJaWz8XY1o1wk3RvkTc3N/7+Of+vj929+8fv2trc07cXzAukLq3cdepcFMSSFcnaiwZqacSx7k46jmfVhxskliZQPXb5499cm15W9euffNu9tvHsQ9T/QE5ZmMH3ADfBYPUB2n5KnNjEC6LgzWLjzx8194/BNv7Nx8Z+vOre3NrclBnBl5n+0AFfoAAs1MwUJjRgSz0XI9KFrH79o2Cqhhkgfy8+tnP71+9urB/iub99/Y2b61vzueZLGDmdqnyFYxyuvZ0r/H9AAT36iq5lgrCsdRynkeHujxcoXLT5/5K0+eeW1z8s697TcOmluT6E3j/19lZ6/DIAwD4bs0qtSl7/+oFWp8Hez8IaCEgYEhkTCKDtvf+TS5fhEAvstmNNXmU/3nnnuo9UXZZK7LxNMDDaNvmWothm76x+z2QLf/5GNgCaOc9Al/ec2wZhuU6ElpG7k2yjNMzLInlP3IWqLPY0IwClCAYtK89cJqAhNfdVCQbmwPQKWOCH40WDThjGudSdaOkVqKB2lRUYdJlbl5ALriH2vunBnt/QLJicUvjUBeyuQ0QSUpNRaAB0fnnSuGuZbQfPfjtmdedfX+D94ge4cJFk0vLO7eMG+p9j8fAJwXvuAGd+wC1z5a68LOemUao6bmajgdjvwBsspccuGzERQAAAAASUVORK5CYII=;fillColor=#21C0A5;strokeColor=#006658;fontColor=#5C5C5C;sketch=0;imageBackground=none;" parent="0Nkzdif2Izn_vl99Jlwj-47" vertex="1"><mxGeometry x="29" width="120" height="120" as="geometry"/></mxCell><mxCell id="0Nkzdif2Izn_vl99Jlwj-46" value="CDC - Debezium" style="text;html=1;strokeColor=none;fillColor=none;align=center;verticalAlign=middle;whiteSpace=wrap;rounded=0;fontFamily=Comic Sans MS;fontSize=20;fontColor=#5C5C5C;sketch=0;shadow=0;" parent="0Nkzdif2Izn_vl99Jlwj-47" vertex="1"><mxGeometry y="120" width="176" height="30" as="geometry"/></mxCell><mxCell id="0Nkzdif2Izn_vl99Jlwj-64" style="edgeStyle=orthogonalEdgeStyle;rounded=1;sketch=0;orthogonalLoop=1;jettySize=auto;html=1;fontFamily=Comic Sans MS;fontSize=20;fontColor=#5C5C5C;strokeColor=#006658;fillColor=#21C0A5;" parent="1" source="0Nkzdif2Izn_vl99Jlwj-51" target="0Nkzdif2Izn_vl99Jlwj-63" edge="1"><mxGeometry relative="1" as="geometry"/></mxCell><mxCell id="0Nkzdif2Izn_vl99Jlwj-51" value="&lt;font style=&quot;font-size: 20px&quot;&gt;shipment-request&lt;/font&gt;" style="sketch=0;points=[[0,0,0],[0.25,0,0],[0.5,0,0],[0.75,0,0],[1,0,0],[0,1,0],[0.25,1,0],[0.5,1,0],[0.75,1,0],[1,1,0],[0,0.25,0],[0,0.5,0],[0,0.75,0],[1,0.25,0],[1,0.5,0],[1,0.75,0]];outlineConnect=0;gradientDirection=north;dashed=0;verticalLabelPosition=bottom;verticalAlign=top;align=center;html=1;fontSize=12;fontStyle=0;aspect=fixed;shape=mxgraph.aws4.resourceIcon;resIcon=mxgraph.aws4.managed_streaming_for_kafka;fontFamily=Comic Sans MS;fillColor=#cce5ff;strokeColor=#36393d;" parent="1" vertex="1"><mxGeometry x="839" y="1230" width="78" height="78" as="geometry"/></mxCell><mxCell id="0Nkzdif2Izn_vl99Jlwj-57" style="edgeStyle=orthogonalEdgeStyle;curved=0;rounded=1;sketch=0;orthogonalLoop=1;jettySize=auto;html=1;fontFamily=Comic Sans MS;fontSize=20;fontColor=#5C5C5C;strokeColor=#006658;fillColor=#21C0A5;" parent="1" source="0Nkzdif2Izn_vl99Jlwj-56" target="0Nkzdif2Izn_vl99Jlwj-1" edge="1"><mxGeometry relative="1" as="geometry"/></mxCell><mxCell id="0Nkzdif2Izn_vl99Jlwj-58" value="/orders POST" style="edgeLabel;html=1;align=center;verticalAlign=middle;resizable=0;points=[];fontSize=20;fontFamily=Comic Sans MS;fontColor=#5C5C5C;" parent="0Nkzdif2Izn_vl99Jlwj-57" connectable="0" vertex="1"><mxGeometry x="0.1595" y="2" relative="1" as="geometry"><mxPoint y="1" as="offset"/></mxGeometry></mxCell><mxCell id="0Nkzdif2Izn_vl99Jlwj-56" value="&lt;font face=&quot;Comic Sans MS&quot;&gt;WEB&lt;/font&gt;" style="shape=image;html=1;verticalAlign=top;verticalLabelPosition=bottom;labelBackgroundColor=#ffffff;imageAspect=0;aspect=fixed;image=https://cdn0.iconfinder.com/data/icons/eon-social-media-contact-info-2/32/world_www_web_website-128.png;rounded=0;shadow=0;glass=0;sketch=0;fontSize=20;fontColor=#5C5C5C;strokeColor=#006658;fillColor=#21C0A5;" parent="1" vertex="1"><mxGeometry x="346" y="240" width="128" height="128" as="geometry"/></mxCell><mxCell id="0Nkzdif2Izn_vl99Jlwj-59" style="edgeStyle=orthogonalEdgeStyle;curved=0;rounded=1;sketch=0;orthogonalLoop=1;jettySize=auto;html=1;fontFamily=Comic Sans MS;fontSize=20;fontColor=#5C5C5C;strokeColor=#006658;fillColor=#21C0A5;" parent="1" source="0Nkzdif2Izn_vl99Jlwj-44" target="0Nkzdif2Izn_vl99Jlwj-28" edge="1"><mxGeometry relative="1" as="geometry"/></mxCell><mxCell id="0Nkzdif2Izn_vl99Jlwj-60" style="edgeStyle=orthogonalEdgeStyle;rounded=1;sketch=0;orthogonalLoop=1;jettySize=auto;html=1;fontFamily=Comic Sans MS;fontSize=20;fontColor=#5C5C5C;strokeColor=#006658;fillColor=#21C0A5;" parent="1" source="0Nkzdif2Izn_vl99Jlwj-44" target="0Nkzdif2Izn_vl99Jlwj-51" edge="1"><mxGeometry relative="1" as="geometry"/></mxCell><mxCell id="0Nkzdif2Izn_vl99Jlwj-67" style="edgeStyle=orthogonalEdgeStyle;rounded=1;sketch=0;orthogonalLoop=1;jettySize=auto;html=1;fontFamily=Comic Sans MS;fontSize=20;fontColor=#5C5C5C;strokeColor=#006658;fillColor=#21C0A5;" parent="1" source="0Nkzdif2Izn_vl99Jlwj-61" target="0Nkzdif2Izn_vl99Jlwj-65" edge="1"><mxGeometry relative="1" as="geometry"/></mxCell><mxCell id="0Nkzdif2Izn_vl99Jlwj-61" value="ms-payment" style="rounded=0;whiteSpace=wrap;html=1;fillColor=#cdeb8b;strokeColor=#36393d;fontFamily=Comic Sans MS;fontSize=20;sketch=0;shadow=1;" parent="1" vertex="1"><mxGeometry x="-122.5" y="1540" width="141" height="60" as="geometry"/></mxCell><mxCell id="0Nkzdif2Izn_vl99Jlwj-107" style="edgeStyle=orthogonalEdgeStyle;rounded=1;sketch=0;orthogonalLoop=1;jettySize=auto;html=1;fontFamily=Comic Sans MS;fontSize=20;fontColor=#5C5C5C;strokeColor=#006658;fillColor=#21C0A5;" parent="1" source="0Nkzdif2Izn_vl99Jlwj-63" target="0Nkzdif2Izn_vl99Jlwj-106" edge="1"><mxGeometry relative="1" as="geometry"/></mxCell><mxCell id="0Nkzdif2Izn_vl99Jlwj-63" value="ms-shipment" style="rounded=0;whiteSpace=wrap;html=1;fillColor=#cce5ff;strokeColor=#36393d;fontFamily=Comic Sans MS;fontSize=20;sketch=0;shadow=1;" parent="1" vertex="1"><mxGeometry x="807.5" y="1540" width="141" height="60" as="geometry"/></mxCell><mxCell id="0Nkzdif2Izn_vl99Jlwj-79" style="edgeStyle=orthogonalEdgeStyle;rounded=1;sketch=0;orthogonalLoop=1;jettySize=auto;html=1;fontFamily=Comic Sans MS;fontSize=20;fontColor=#5C5C5C;strokeColor=#006658;fillColor=#21C0A5;" parent="1" source="0Nkzdif2Izn_vl99Jlwj-65" target="0Nkzdif2Izn_vl99Jlwj-66" edge="1"><mxGeometry relative="1" as="geometry"/></mxCell><mxCell id="0Nkzdif2Izn_vl99Jlwj-65" value="" style="image;html=1;image=img/lib/clip_art/computers/Database_128x128.png;fontFamily=Comic Sans MS;fontSize=20;sketch=0;fillColor=#21C0A5;strokeColor=#006658;fontColor=#5C5C5C;" parent="1" vertex="1"><mxGeometry x="-92" y="1660" width="80" height="80" as="geometry"/></mxCell><mxCell id="0Nkzdif2Izn_vl99Jlwj-83" style="edgeStyle=orthogonalEdgeStyle;rounded=1;sketch=0;orthogonalLoop=1;jettySize=auto;html=1;fontFamily=Comic Sans MS;fontSize=20;fontColor=#5C5C5C;strokeColor=#006658;fillColor=#21C0A5;" parent="1" source="0Nkzdif2Izn_vl99Jlwj-66" target="0Nkzdif2Izn_vl99Jlwj-81" edge="1"><mxGeometry relative="1" as="geometry"/></mxCell><mxCell id="0Nkzdif2Izn_vl99Jlwj-66" value="Database Transaction Scope" style="rounded=0;whiteSpace=wrap;html=1;fontFamily=Comic Sans MS;fontSize=20;dashed=1;dashPattern=1 4;verticalAlign=top;fillColor=#cdeb8b;strokeColor=#36393d;sketch=1;" parent="1" vertex="1"><mxGeometry x="-337" y="1779" width="570" height="290" as="geometry"/></mxCell><mxCell id="0Nkzdif2Izn_vl99Jlwj-68" value="Account" style="swimlane;fontStyle=0;childLayout=stackLayout;horizontal=1;startSize=30;horizontalStack=0;resizeParent=1;resizeParentMax=0;resizeLast=0;collapsible=1;marginBottom=0;fontFamily=Comic Sans MS;fontSize=20;fillColor=#cdeb8b;strokeColor=#36393d;" parent="1" vertex="1"><mxGeometry x="-281" y="1864" width="200" height="120" as="geometry"/></mxCell><mxCell id="0Nkzdif2Izn_vl99Jlwj-69" value="id" style="text;strokeColor=none;fillColor=none;align=left;verticalAlign=middle;spacingLeft=4;spacingRight=4;overflow=hidden;points=[[0,0.5],[1,0.5]];portConstraint=eastwest;rotatable=0;dashed=1;dashPattern=1 4;fontFamily=Comic Sans MS;fontSize=20;fontColor=#5C5C5C;" parent="0Nkzdif2Izn_vl99Jlwj-68" vertex="1"><mxGeometry y="30" width="200" height="30" as="geometry"/></mxCell><mxCell id="0Nkzdif2Izn_vl99Jlwj-70" value="customerId" style="text;strokeColor=none;fillColor=none;align=left;verticalAlign=middle;spacingLeft=4;spacingRight=4;overflow=hidden;points=[[0,0.5],[1,0.5]];portConstraint=eastwest;rotatable=0;dashed=1;dashPattern=1 4;fontFamily=Comic Sans MS;fontSize=20;fontColor=#5C5C5C;" parent="0Nkzdif2Izn_vl99Jlwj-68" vertex="1"><mxGeometry y="60" width="200" height="30" as="geometry"/></mxCell><mxCell id="0Nkzdif2Izn_vl99Jlwj-71" value="balance" style="text;strokeColor=none;fillColor=none;align=left;verticalAlign=middle;spacingLeft=4;spacingRight=4;overflow=hidden;points=[[0,0.5],[1,0.5]];portConstraint=eastwest;rotatable=0;dashed=1;dashPattern=1 4;fontFamily=Comic Sans MS;fontSize=20;fontColor=#5C5C5C;" parent="0Nkzdif2Izn_vl99Jlwj-68" vertex="1"><mxGeometry y="90" width="200" height="30" as="geometry"/></mxCell><mxCell id="0Nkzdif2Izn_vl99Jlwj-73" value="Outbox" style="swimlane;fontStyle=0;childLayout=stackLayout;horizontal=1;startSize=30;horizontalStack=0;resizeParent=1;resizeParentMax=0;resizeLast=0;collapsible=1;marginBottom=0;fontFamily=Comic Sans MS;fontSize=20;fillColor=#cdeb8b;strokeColor=#36393d;" parent="1" vertex="1"><mxGeometry x="-31" y="1834" width="226" height="180" as="geometry"/></mxCell><mxCell id="0Nkzdif2Izn_vl99Jlwj-74" value="id" style="text;strokeColor=none;fillColor=none;align=left;verticalAlign=middle;spacingLeft=4;spacingRight=4;overflow=hidden;points=[[0,0.5],[1,0.5]];portConstraint=eastwest;rotatable=0;dashed=1;dashPattern=1 4;fontFamily=Comic Sans MS;fontSize=20;fontColor=#5C5C5C;" parent="0Nkzdif2Izn_vl99Jlwj-73" vertex="1"><mxGeometry y="30" width="226" height="30" as="geometry"/></mxCell><mxCell id="0Nkzdif2Izn_vl99Jlwj-75" value="aggregateType" style="text;strokeColor=none;fillColor=none;align=left;verticalAlign=middle;spacingLeft=4;spacingRight=4;overflow=hidden;points=[[0,0.5],[1,0.5]];portConstraint=eastwest;rotatable=0;dashed=1;dashPattern=1 4;fontFamily=Comic Sans MS;fontSize=20;fontColor=#5C5C5C;" parent="0Nkzdif2Izn_vl99Jlwj-73" vertex="1"><mxGeometry y="60" width="226" height="30" as="geometry"/></mxCell><mxCell id="0Nkzdif2Izn_vl99Jlwj-76" value="aggregateId" style="text;strokeColor=none;fillColor=none;align=left;verticalAlign=middle;spacingLeft=4;spacingRight=4;overflow=hidden;points=[[0,0.5],[1,0.5]];portConstraint=eastwest;rotatable=0;dashed=1;dashPattern=1 4;fontFamily=Comic Sans MS;fontSize=20;fontColor=#5C5C5C;" parent="0Nkzdif2Izn_vl99Jlwj-73" vertex="1"><mxGeometry y="90" width="226" height="30" as="geometry"/></mxCell><mxCell id="0Nkzdif2Izn_vl99Jlwj-77" value="eventType" style="text;strokeColor=none;fillColor=none;align=left;verticalAlign=middle;spacingLeft=4;spacingRight=4;overflow=hidden;points=[[0,0.5],[1,0.5]];portConstraint=eastwest;rotatable=0;dashed=1;dashPattern=1 4;fontFamily=Comic Sans MS;fontSize=20;fontColor=#5C5C5C;" parent="0Nkzdif2Izn_vl99Jlwj-73" vertex="1"><mxGeometry y="120" width="226" height="30" as="geometry"/></mxCell><mxCell id="0Nkzdif2Izn_vl99Jlwj-78" value="payload" style="text;strokeColor=none;fillColor=none;align=left;verticalAlign=middle;spacingLeft=4;spacingRight=4;overflow=hidden;points=[[0,0.5],[1,0.5]];portConstraint=eastwest;rotatable=0;dashed=1;dashPattern=1 4;fontFamily=Comic Sans MS;fontSize=20;fontColor=#5C5C5C;" parent="0Nkzdif2Izn_vl99Jlwj-73" vertex="1"><mxGeometry y="150" width="226" height="30" as="geometry"/></mxCell><mxCell id="0Nkzdif2Izn_vl99Jlwj-80" value="" style="group;fontColor=#5C5C5C;glass=0;sketch=0;shadow=0;" parent="1" connectable="0" vertex="1"><mxGeometry x="-512" y="1540" width="176" height="150" as="geometry"/></mxCell><mxCell id="0Nkzdif2Izn_vl99Jlwj-81" value="" style="shape=image;verticalLabelPosition=bottom;verticalAlign=top;aspect=fixed;imageAspect=0;image=data:image/png,iVBORw0KGgoAAAANSUhEUgAAAIAAAACACAIAAABMXPacAABDvklEQVR42tS9WZNl2Xkdtta3z7n35lyZWVlzd/Xc6MZIECAAioBAmRQnU7IVGmyFHVY4wsOvMPELbL9IEYqwXzxIIStkTVSIEkFKIAiCBEBiInpCjzXPlXPmvffsb/lh733OuZlZPYCNBycqOhKVWfeeu4dvXGt9lITyJQkE2r9g+wPkvz/xv+UXiAgQIGD44F+CA4RANGAjDNQ9AQyA1Hsm9B40/bWU35dIj/MB3x4A6A4HaApHPt3MFzXz7iJEsP+87/fdKSm9geSx/6If8PEJM1l6SRJABAI+wCo4FKW0eYQgSjzpwz/igxgcUloaEkD9gd5dcKZFdwKIYdpfYh09UpzZABhlkVJ+egbqfR4CSpIANgSACn+hL5WjKLAhqg+wBOlI2fte8Pd6KVHk+38lRTgh+8lXoPfgDlg2J++5B5QkOOE3t15+dedrDB/4nQm4vLbhqeriqYVLq6PH57lWHskhS5vyXgurA9/80e0/3IpXzEQfRlIzn8+UF5RpgcsLJoMjxrBQr6zNnzu9cHGlWq8wBCA1JIXAYmLeZc/GNvnz2z+4sX9FtZtX/d/Xkb1U39wQkGQOqzlYnVs5t3j67PDMos0Vs453OQpVuutgdf3w5T+5/Y+qOihfig+0BSLCwObrML82vPzE/Gef3/jCqfpxIEgiCL7b5xdEsMH4zx/+2+vjlwIHcAoCLH1OkVAAIFo6YXkJZMn8UcFU0azmaKk+fW7x8Y+c+uzTp14Ych5ypxtEWHmIow8jiiKhHz383vc2v11XAzWW1qUsdCgrEiB5/numrQeZfoEKwaphPXe23nj+1OOf2nj+/OgsRblIgGlZrb8K3Y2zyoaD+aquPvgG5E/hHB9w9+rhrVs7f/7q5u88t/7lj575G0u2Ah1AI7yXQSCquh4ONB84gFvrRZT2N1lX0AGJAikTKKYbQUARsfH9zcmth3fuvPbg248tfu7nzv/K00uXQwRgMOZLpUcahqqqB4PhwAYKFfLLpn+T310CRG/votI35oScpEmcxvE7k2tv7N78o7s//vzGi79w4aMrYUWeNoqgl1DliNEXJHePEPQTeGOZaQE2QYgedD/e+ubNf3pt65VfeOzvnZt7yuWm8F72UHLIJQpydaEZBZDp55BywMP0E9FJCfAgEhQqqrIJ+Orut66//uc/d+4vf+HcXxtoCIiKyUceM4hs38wdTqTYJC2vehFXegInweSvBNHzr6cQjgBQRwQ+iA9+78ofvfHwzV97+hefXLhoLjtmBeyIKRB+suMP0I17QdPKZQ6jc7Rz7fBPfveN//nN3R+K5vD3egkrtzSfrGQBRIh0wHN0RNHAFGzl1ZforKgBfegKLlRNVVfVftj5+tXf/Tfv/JMt23RGgUA40YYWw2SElZvXHn86LApRcNLNxHz5smciQCON2d2RstEECw04tJfHN/7xn//Od7dej8ZuV0/cgL9g6DExaxgEAwTEqpljPbyN17721t+/tvsdo+E9LhZnDmO5/tkKi1LaQ87E355CyCibiI3Jg9zksrE8AIsa8vt3/vDrr//bA+17CrPgRDwxCyhvxDbaLzshtEZ/JoTJhz+9hKdUheYaTFlPrZKwgPqWPfztl//Da1tXaOWEfegbQMAUCEP+E1wGjwOrd+L1/3jtH96KPwQoNVCEp0ThaECWXKvDnIEIEIhgMjnhBIwIlEEmBYelvIEwU7AY0oVwUqSjJmRywMKg+s6DP/zWzf9obJTsxJEPnqxcioYoEY50kgwIZUusHAijjDKkz8tKrIQq/bJkrjYygwPuGLG6Hfb/5Ztfvzm+S9J7NuZD2wAAhKd3TAdK9JTihCo8GF/53pXfnmAP6R7wxIioH9i1rq9cBQKytFIogW05qigrYk6WhWM6vXBKwEDfuf7NH+++TEKO4ymn2B72o2cc3v9LK5fD0HPOx+8HU1IIxkB3Dizc2L/31Tf/9JDTfhb3YW7AI1JkRU5DhSub33pz64+RDBSnJ7+1Zj8M4aBnx8beMqUdbr2VKXsN9oN0wRyIVISCD+7X979x42uTeEjAj92/maKCessqdEZDVjKtnMA6keKiXnzb3pXkwCigMaumYl196+GVH9x7k2S7Az/NDcgrYg6A2rfNl+7+3gE2weoRzqAXXCOZkXLSkZxe/nsVm0Ba/giimH5kxXmWjAEkgkRUeHv3rde3XqPRxEc/dABCiQgIkLSyK2nFjCAsyKy8r+SUo70E2XmYAaZkKkU37obpt2+8uq8JU6D1U92A9ERQAKpGoalHt/dfubv3KkAp4JFBEXv+rXf6yg1wFRvXc5vdNyy3X4gpnhZFRNOgmZ820x88/LOpxsGrdytrpQOerOlsaNAmxsq7jt7N6CfnVsKz/ATRCGnO7K29O+9s32n9/oe7ASp/0MtTCJCiabDnO1d3XyolwBOqoSnEVEo7lS5ySKdPME9HMh11kCo/opVUmVA+bkD5HRhFEcGrUNm1vbcfNveTaTkSBRkkIjInegI9GaT2UipAFEJnXkQpqHxMlT+kGYxuAugGMJKUVbJdTV7bupaDfv1UNqC1J6HYB6RU3Q239t6OiCc6YYd7TlXN5anSwM4rQMUmIK9sz+9lq225nlc2oDjJkDfYtDvdvbt3F0dCYgqQCQA9lZpQdllWAuJUjTCh5+dl5XVmIoh8FHKxpH8/TMSV3XtTjUHqp2CCSnlE7BVyk0GPIPfGD/abh3hUTpDurKfjyFLQZYrnev4w+2GxzYZaFwKRTqRwNjkDlQRPwcY+vbt7/z3zwTa9PxLzOPOlaCOnzmm1rotwIUrKuWS+tEpVCNq9g92tZpyKlB/uBljP7MysiEAStPrAHx42W+m6H9065n+bM6+8uNm15kPNXglsJjKxlBO1IXAJhNIDmGiASRaJ/Wb/WLE+FTFytQxkLwm35MoEykpATMjblKpLmJPXhczV+/j5lZl2BbSt5vAgTtPTVx961Nm3GAC8l9BD1RQH47j36IIYIZA57EmlNwiuXA1qY578H6WzX365uEQRVHckczlBlTzS3fI28RFhaOqpzDSDnPlsneR182nzFFwKniuv7LvrfgdxKlfZvSqtDo90+D5gH2/W/PWSKSIXgUVJIh1yRpSfnfSK6b7HnBYpZVtisqcsxo2Ecok41QIs1+tyQ07l2BbLRsCDh6jYlth4vBh3/DCRs9mWjsU8+XsC8vR05rM2IDsZWnmL5NsgoMqOkzA49ZO73C6AI3rBT0llBcEFSINH2b10pZ3mhCm73HRQUjyjkukoG08yx0WlIasccQkkXOnSKKX+5tbUPnLjJGC2o40jh0YEZbnWipDcTDJacpu1+2X1S+yUgzeWaodMUjptzDshCJxtdSq3Gn5ir4s2eyzbUMyFt4WE927W9407Z9sS7dkoGzxj61CSL84W9YoRS9kQT+rmP6KshXQGwLbYcewjl2wr7Zno6hslm22odRWnGScPVF17WYG0D9TQnw32ux1NXjcHczneJlI6Kj7647dxZCgu2mazG/bsfn6pmG5/a/H7vybl7S/RgQCnIuPRjyl1tkIlcKK1DkwqDWvM7LQspR1wta7IuuVWd6rKgUkG+aSOWAiDn/z492I19b2/IGY0iZSyYiutseNRUCBD13ji7Iuz1HnYfqq2oJO8RS9dyImFlaeyUpYhiclkrJOCAKNVdS11hgigSyQJ68U8JbdhLlyrV0dR8Xl9E1eukamft/cyYQEYhgUiAKLs/TqDLt7vmtfFB2bojLwtCoVUiY1xesJVEgZWD8Kce4u56RUYVFIbMq2mK4Mfcr7T1SpYfOzxOqUBEq2JUfLjT0DYXDWXXGFOLNKO6cjq5xaMSoRWAgfmd5/JD3rVegIy7zxHdsdI1bHV6ty8rTmmVBVSG/CoyRZytTm9QH6OEuoZYFSgTB7ghpRK0ihjqqFbnPp0v9lOgcmR6LPGcLk+S9XiVCC9lP5zpSG9vkEGT+7dAiqU6jzh2RIJctCNXV1aoEMBEDHYnRxOddAvp7ZNx7NhfRjrGNJBNtDkQb2OdL7fpJGlbR9SGdxZQk+JnqKDkgSkVyt1Echaj2vleGppfmNpsOHeeGicJc94lOkX1U921HmefDeJfilfYqqhOeLm+D4Am/X5AoDq7NL52k1okPoqOFIH7lk5onj4lDS08Ws2xJ5L1m3DAJ5+Qdqd7O/HA8wmY+mbjZWNubDQ4MTInOrV+V2InUvoirLpHX3GdZ8YtnYmSAQkG3Ll3MILFgeR0UkwdVfeNeAp4aCX9XL1Oog94IZAWYrG/N7+zWkGMR7dgkuLTyzbCqQuFmKb/uQz5eljqtz6fDbTeafn9+3ypuKT6DQXg7jj+/enW22LvVgVA3B2bmNjdCZDBLuPYL32pIl0pTcq+83OVKprbqdqUpcqKttW9tvCObwFRVRPnfr8SGuQQSH4I45/Z+BMsjYE7OXcygvYb0qQkYGqSN2f3NrT5vEqhhxnhpcvLb0Qp4M+IKW1+6k31S6NukoDnXSYK0Us1u8flNoCXSawQtiN+3f2HhQ0aolKCMlXbPH5taerRuyvV+tmWc6T2lA1lW+zn2jvXPl3bMu63WU6qSmfzdWFhY9cWn9WUxoqg7U1pz725MjJdUKdHWDbsWrLA2rthugeSD48vP1g7ybyae7BihBNc89d+Gxtyyrwt7KRnVfPrpjlZZnhVq72sFsvMMsLx1JTIhDNrz28FdGw1xsUBDkdL557bm20HKMT/UKmpaKC1EJQ863STCTCI4VPKJWSirU7toCdeZJQaf7jG7+2yNWIcWRFIUimaJhALIWj/rKaZa9reStUEmClzM4IM9BkDocQtLiP7Ws7LwEOee7OCoQHmoCnF1786MrPTnxCy3V/uOgJe9D6MaPIZI1SMOSw1kvnIoR1XXVnA6siZIi0ILuyd/X+9CFVRcYGMdsRBsHPDlZ//vRnESUzqIYGUiCRkDDJ64rZ6/bqJz1jCyj19PMjMcoi6AiR5jQvGD2wi3NIc6G5NPrCJ878apjCbRJZRwyFoVCR04I+byO8XqJ0zOvOpIKpXaeUl1LB39p8bc+3iMCZPJwAhpj73KUvnqmemDbmVR1pziDV5Rf63h69xmFJmnjkMFrrkNJxd1mwcPfw/o833wJpHnoIWtIQoM9c/PhHlp/SQZzWPq6aZAldcrF18m2lId0z73X2+32xHpR6xoOe3JQXUWn4M2f/s2dP/ZKPBRvLxo25NKQsYzK7cNuE3DQXerkocy8ilb8diDkqCE5EimY3D955fedlkIgGOuhQcvtSxPnBU3/l8l+b56pHON3pxz5Y27zNlYZeJXymbnGkQJvKeYSNQ/z+3Zf3dUiaCY7Gi42lsGLzv/HUly8NTsfp2CtPnS/vSuU8Zs3Zbw9oNoWcOaniiSYof2+qgDjC6hce/2+fW/6iHQTD2DgWCNXIUJkc8CZUSG7b9rxujj3Yf44M6XGDA0HVlPs/uPNH+9hK9UtHB9kkgMaeX/nULz3166emq+EQRokxsxi6PpQJjGrbhy1UrQ1eDWij6fI7zPVh1eHt7Wsvb75aKjFtUAciwPH43Jnf+OgvPmEbw10agueengEmWupPJESeWhAfWVIW9nraao9jCdBnNiB85StfmWkLUgKHtnhp5cVJ4w92rkcemg2t9YStc4cVvHEpD9BKryp73RJHGEqLirAqgsbNwwfro/Vz80+7IMpkIJ2eWy7E+dHjpxbXbm7f2B7vIgyMFXtdqhZf1cXg/YZ+Ls2nVNbQC9UKGrtyNdOD3Wc2nhthWFo9BekMOHxjsHrh1PkHO1s3DzcVzBhyGCo7dsDLludSFTnbUxMLTgkmIAhfPPfMSj3S0Q0gUsEA0IBLl1Y+sTBa2d2/szt9ODGnhZArOQZUyZalOgkZKGOu1qd2uWX71JZHEqgtoaloDaa7u7tPrj03H5ZT0s1cq2Fux0bbmDt/af3yZDrd2ntwoLECYC4jUQuVYMx+PvezCBKVqaJsYhQZWpNBK+3ZdA6C0TYPdqvh/JNLj7GBAizXr/NporQ6WHrizOVhU93b3dxvxh6oYKXaFtL7Mi0IDSy4UpnlcMCYEhSmZwulIsAvnX16pRr5sRvQJnAEFISzc89dXP3ZkZ1uDg/G0/1JbBqPkdEZI9wFR0Y0izbFwEkllKpI1fAaCJZga22RmSbAONw93Im+f3n145Uqwltwa87nzSkuh9Wn1549u3DOmsHkoImTZuLTCROGO+FCoxAdMVJOyDwGd/qoCYRFs6mxCbkcIoEMrW1szO5tbT62enF9uJxYbk5E0LooXgs2eHr1sUurG0OFycF0PJ7Ext0lV/bMnuEzcnpEAghNoQTmjfLoiGmhBHdEwaQvnX/mVD1qeDJApOPtSIEGQfvx+tX9V2/svr19eG9v+vCgOaCVVFmAMGmmhzhoNJ36NAI0GmsylbGMsrRVErNNQCX4cDr48lP/5c+tfYmNUPUdkjsaQ6VoBBAwxfT2/vXr2+/cOLxxf/xwd3rY9GypiWp02IwnaA40abwxmNdVDAxi3UgI2YsmNFUuZUljPLv0xN/66K9tYFmSGx2qoFwlSyEuEcAGfmO89fb23Ztb925PtramezEqW91MEqErBZaMbMMeCeZQW8JzcT7qf/joF8/NL01Sp/DRHa+ER46Ukblw3aCZ+F70iQjmeo4kd/dJ3Nua3L97eO3O5Mqd3Svbk9uT5gB1kA0cFQu2v6Tf08jam4VlDX7jub/5kcUvSI4Z65kOpVyKUFXuh6MZa9LEKXoVTYETYOKT3WZ/c3/r/t796+MrN3fvbDUHniPN2hEEpYq8EOAA3c0wxmc2XvibT//SnIaFTuROs34OmtprhgQqnmAyiZPi3tHuVs+KFG5WJuvNtA6nxCkb1IlC9q4b0KSoIHctFeHOLpWrZ7Lq3rdTxJ24fefgtSsPXnrrwcv34q1pHStWCaiU2qqEhNqtRjxYw/m/+vx/9dz8C+7RLHRUN0JsBAlmaEFShI60lU74mmDv/sHDNx68/aOtt97Yu3mgwypUphQOQAiMMGASKFo4xOfOfvyvPfULC5hLYUuXGvTbxwkOqpZlZO+Ls3ciI6vl9r6rCepTcNlGmx1Jth9ZyEU3BYCUYCnt8nvTd16+961Xbn/nVryJmkMfuFcxRMjMg4cpWPs0rIczv/7E337y1LP0oBxGFZRB7tK2T5LuJXn886sjs5Cp0Is97L29deNPbnz3x5tv7YcpB6FqahcFJzgxM1CCN/jy+sd+/ZkvLnAUXSHxnokenEG9Tnhp7fVjSvWJe4/CXHkJuAvs4ifkw7wf1rWcqmAQ4t3Dt799+w9fuvftse14qKA6BUM5jzV41IJO/+UnfvnT65+vNJBS1J5pqw4v7YcP8AhqiwSGQ01/+ODVr1375rXDO6yq1HRyhSYkwg0iybG9eOrJ33z2L12sV5tSb0sgIX2gXu0H+ToSBX2IALm0yak4aqN67flTn1yf27h2cGUzbtUMwVsYsyQqcNf23rn/9s50Z23x9EJYTOY/k34YP/gG5BgxAWJqVBfnzzxz+qnY+LXdWx688oRsYWPmCAPZ4SDc2N+8cv/GcG6wMbc2YPHDVlwt//+zAWUJQEbSU/xxev7i46tPHG5P7x7c1rCh167SRJSRVROmN7avXt28qoFW59YHHACQiwkRTv5kR4FkZKRjkfPPrD05qpeuP7i3HWIMDKB5iGYuVZEDcLvZe/n+lf3dg6XFxcV63sjUdcwn6qe6AYI+hIN/BEmSOwKMhFzLPP3U+gsPDjZv795k6Mr6RKhiLQK1tpvtt+6/eX3rejOIc8PRyEZkbuV3BpPv/QBHTCIJOAPt8uL5Uwurb927ucNpRTOhIQVUIgWFahLw+u6dH92/8mCyszScXxnMGTPHlS2FlCf6S35QS1V8gD6MO1ba5G1i398FT8jBSAVu+4OvvvEvfrj5bQ5SnyuITuUCeiquHXoz1OjS4LFnV597bO3xC3OX5m2B7+8xlKntnIGQEaI8l+Ttuw9f/6ev/8dd7YF00cCJmZvVkVVErDCOQqP1sPDs2qWPr16+uLxxargwnyu47wEWdHjJfnM411/a/kIzSpRTtuM3tiZ3mekrhHq05kzVjEV6oGuBEUaxDoNBNRxxqbZhQI0eRb8XNOQVcbnR9prNf/Xjf/zD/e9VdRWaQcIrtuUdlxLkRo3gGAyGZ+pzZ+fPry+snxqsLVQLg1B7hzWjOefCaFgP58JolB8gH9UEWjtyN+Si8Y/vvfLPXv+D/TCphSa9b8bEydJpIBtXjLHm4NRw6exo6bHFtY3R0lI9N1+PzCq1Vs7dGOaHo3kbzIeqzmFABOAyI0vI0VuIbgO8oVU/vP3v/sOt/y1UVX7wFv9UuHC57NUr+SrVYWRmVbDhKJw+s3D60uKTjy89v1pdIELOXwhgmnsjOc11M7s1vfJPXvk/70xvVCFIonJlLXHhmd4xo5o1xliSKVReD2yAMIj51VILSANyiLnTg41LSxcvrz3++OL5eQzKjZwysxh7V8I9mv79tW//u7f/tBnR3EqPkw7lxk5mt5vDoiPKU4FzyHpoNc1aMGTaroFVc/Xw3NLqi4sbz6+dPTucAzBWDEwEBYT08XoXgi5BE3LwZ3f++e/e/IdWh4wRVer4dOTpzJDOdqbVSMgdBhddDZs4p/nV+oknNj756TNfWK/PuAqKqr03Ekk0QsXvbX/737z2zw+rXQJQSG2vVDq2HIDmvmsqsamg1CR5T3/Cgak5FBhDiGHe5i4vn/vUhU+9eOq5eQREzyW7fjQumWPfxv/Hy7/3vc136jrIU0ciYQfY402ijpVEt1xfFJig/lkmhJxaEASnCYgC7Pxo8WdPX/zS+afOjeYR0/sxMtNr2sMQfusrXyEcDNcPXrq6/b2KlTkrMcAIC2CQBTDAAlBJQQhAJVQF52a5Es3AYLXFKm779jvbb1y5/7Zqrc9v1Bj02BYlliAUcXruzM50+/rWdVaZhNRh2Sh1vYTUdfJIj4mIbQEYwSpiINaGeqA5Y63afMBDm9we33/t7lv39jfXlk6v1PMZYtXvbhNyDqxaWVx5487VPTUkvXPk7GA7solxaowp9RJhhS9PE81gA7cAVrCKYcCAUD3Q9OXN26/euWnDuTNLywORLrdSbGG7Ab/1FQqgXdt/9a3d78IsZpBB4tgSSNIIEENkSLosnjqFMEdwWFTwXIWvhQFJq6ebdvPKnTd8Gs+fulhzdCSvdzaAKtUri8tvPHx9z/dKYSvX9525iJ8KmS1OjQqJnyQ64GLqYUTQnZDDPAQNiNFh5df3bly9e3Vlae3saBVSewmYLoER0qnB4r4fvrp53ULo3RLruupMLXkrUY6V0nfmbGT2YOGUeaZF0Op6q5n+4P7Nh83u0+tn5hgiM7qvtwFf+Qoh0G7svfbOzndRKvugQRVhQupBW6KoFVOeqHShUB5ZFLOYlTVktBqma9tvbU4ePrH2TO0j0SOjIYHmTAbBl8Kpw7j/2s4rNWvzwKLTwAL1Aa1ILIQCVS8UsAK+E80Zun5Ziemsqncme69vXTm9uHp2uK6YcRGUwFLQIdfnll95cO2eH855aLK+UK/3KwiBAmGpX2RuOTXJLi5EGmi5PUeLMJF0MlSR9vrmw4OD8cdWz1RGCdaLCOwYT7cln/T6q7nv6IUS0AJBUoqSQc9qiSsJax1rKGjoL935wdff/v1JGAO01FvPkPok3IAXzn58oz43dUWD0zOe6khXPeNxch+w4B5YDFeLQrRCyBBFRoR6sD3e/+2Xvv76/nWGRD5OzZNkCijp9GD5E2eeCpFTg9N4DGYiyJkhfn28V9sNnQGheqs1R5cojsL8129d+Ufv/HAKBMJNj1JL6WPZ+iIuvS5rx1VnT9fCZkxnjugJ0YnJ3ORbd77x/fvfTj3Hfr5nMDg2qrMfWf5EVIKNeNY4OLmrPoM1AouMljp8E45Ag8RQ11e09duv/9FW3CWz2eqRyQngZ04/edoWDwjvBIhO6qqDR/kBHeSeZA8j1JLXADp9MP87t6984+ZVcqb+Zl0RMXN9Wixbywfq2CA9hZgei7ylguQzkuNXT2/kwU3jwd43r/7Bzcl1kp4wVOlGw2QKCM+uPj/H+fwiBf9zUlc9h3zK1LsCxSFnWXOZXEFRQCNoZD/evvHNGz90HkW9pgW7OLf29NIZuawFmve66kdQfi0CzBOPtWxC6VCULk1qt4gT89HUFIe//c5rNw4OQmZ/zN6AdMvaAD83FU7iqssTpE/HNWaKQpwJjBYBMx+YVxXCrenV79/6s1KO7w6sWyPo/PL59bl1TGAZfBASX1U6IT+nCvqhU985bjSsrV9HeD2lBuFPbr52bXyfRvqRwqlqhKfXLtTOkATOjjFVj4FiWuRkbo3rBMJwyyeME9O8Rlcm06/efNt7HRprmTOpX1wkjRKqpwP5zHDVM7jCOq46ZrjqyBpLVYJymgcoWFW//PCl283VALMILyhCQ4CwZIuPjR5vEA0uVCmycZRblfytDAoSxaqcR3skVx1S0fqggrkNFa4329+99+aJ9BBBl5c2Vjg3YcuQpxRK9sMM/s8I3BwoppwRolK9kVaQ6EZlXr9EU4iGaHHI6jt3712ZNiAbxcQhOQp+VuvFQMmO8IQ0Q8DjLAatQFaTtfKQKEFpXQLrB+P7b22/kWGfHc8g9cC5MX8GwaSsRNb6anWA55ZpRLJddEMPRXuEt+Mlk3CSgir++O61/TjmLAclhQOnR0un6oVJdHZswBMXYUa/oFQK0pNYPrjFFWXfoGBADF5ZeHAwffX+vZ4+wkkAdGn2ohWuuma46uxAQbIeTScJUvVwVAUCLMbrD685Io3H20Vri2s1Bp4Q162ZbuEU5cMkrnoWY+y87lGuemHKW+Gu2MRgDHcOtq/tP+x7vhY+PawGqwvLlmO9VAhgn93X553nDDG7SWVMVflvAtO18H3kaM2mtEPENx7c89Lw61TkWrt8UszzSK76LFs6c9VLv7BnNGUQo+nOwb097Z5ADwWWquXahkmghO3pK4JxuS1KkpaUwaSTuOpsuert1aFgkqU++64mN9IGHCtjDmErowXETqNUswSQjgHX4gG9RWWE9vfT4mTrRIJGBjEgkeUtXD3c320i1ZacZlD6OB5mecZk9wCnJ3DV8/EsOi6cQRKmFw+2Ew+2prsg4EfvwKiaH4b5hOLnjEZbNibKAjCZNXccEe49BDk63pblnj5QOQ8VHxzuPKqMvFjNmVDCfOvfPPQkHzop63LvPYuJoh8utg8WSUkWGRw17N54vDttjMGPSBVoJv5NxchWESpB3qzL0YqYaqF2FvkBmY6Vvkt1j+PmcDwdY3BCQ6M2G1bDOElKJjm7VleTae9yOjd2NORImV0OzsyL9VPbqAj5o00TS3C2veVAAEYMtAxnUyc6lYRCy0uxR9gvVpdZda5Uk0rZK6t5dbpnNOJgqqnH9OOqv0gZV6S84CqaSz3tnaNc9YIPEJO2WC4SJNvtrexGVEFdusvjIwivbrJIBiHJBGVqPFsSINPV0Qy7kq1SADKG2WbU3xIFKwmuIiHFjst3wokAzFcDVMGVOjrs4b6sYCJYOGCddcpXo/MHrcYBBLpnIRwAMfN8rAUMVSc54fLYru4tS+Ta8nVncsKOEdfVD9RTTzsm+HiiEZ5xG8UVszNIJ9LEexTieDJXPSW2phwxvldHy8lgmll9tNhsotOUzTZHbKED7cFt18ELEzOfUhTi9HGidt4uFrpvi845zvPrcdVVLGZv+azNyIpPTlKPfG81+jbEyu6rI+nNaOP1zn6JFLO8sWa3RP18MxnRjOJGvzg66wVTebGYsl6Ml3trbVou5XuSmoos8pctXjHnV3C1MtdHz2I1C6QhwZg0gdVWxDpVvMJCbakALcuLCRzZZ5WmiHiGxfl+5IY6tojN5rp27JqWkLQFmeWQ305gT+QWy6Puonoklr5W5kxZrDXIvQAd6sx9i+5OMZhKZ68FqbNdk24DmKMlGCrKPEkppTA77RtLOq6WV5xJly1gv8dgKc2eY5yW0uY08lHQPbVnEJ0P5EmVhplQLYekyT7wJO5KcWMOAzGOzXFJeR55BuSaUZnG0b9Ms8XB3idN4Zkn49mqKihr1fAkNEcFpVYlFmwlqJrCAA+IQp2DHKG3jZbFYIqtsJzrp2PiWX82Re7OGb0HQqgmrBLfLh6rxNZWhWDRDayJ2EV7zpMUYtKtNCnnHEWyNavh5YCtVYkVzdmEAGnPJ0e1IsjQUs5IyTL7U/DceEg3iEDwLli0dotybAy64EqMwbZkiZZTlIR41CMqWfsYc4PFKgykhmyoYHGWdqIeV1/yHO+1dd12oYMnIQex565bChSnsdlrDo9JlxPAgMPFsAxnE+SZ7HBSmaRUJXt8Oc4mKP22RHZL0dCSb8ZN0+iIaEn+fmV+YWBh2slPWALolQtbKPlk4QSiS4nZquO0xeOexmXfFc0StbOaxvLc2ny1CkUBUGU97YtUYS487DYf6Vq4RYvEVCjkSt4MvX8II9ioedjsHhcnEhQQzo3ODn3gVLeLM1W2jquunOtaW5XLpKiWRS32eFvw5H4jBG4eHoxjc6IX2hguLrKO7SHVjNd1oXDBmUrCiRiTZSph3imttHQ59ktk6b6yR1C2tkO6XK+vDx5jkyBgwduCkKyraaiLOPsaSW0NcrarPmO+lTOMeP9gE3A7FoEYcHn5sTkNHI1ohWw8Y/e7D9bp4nRc9SODjWavr6XfltmWT7abw6PlIBLS+mD+8aV1TGMuAvZy3WJ41DvdhYZPc5kDPZmVLkLzXmmawkksSSbxsrkn1p4LsZbSBsw4WG+1UlS46r0AYIYkfFREKIcrnldQd/ceTDDFScqtF5fPbiysKWaMztF4v1WIQV8hxoR356ozaaCFpGgRws50fG97C0BfxVyASzX5zMaFOmdVPaUZ9GUYezzhLFCR/I6K1+0iTh0hseb6eU+uBglrZwL4/KkXV+YvTN0IhFhBWQxGbvR03wsvrqcQUwQmSQ9FNCOdrk4Bnk6XGoTK7M7k1u3JA7TK+5kDwCishLkXzj4LnwMcbAU9TAikWdJCTFz1TiEmt6wTAvgYVz2kd5cnkDBr5zTGN/fuNymfVcHsQGkoxidWL1wYLcZpEwPcaAqOQFVwU9ZiT8UeAwMZkuGl0xRMRg9UEvxN6vpBSd0DYOnae56ygA4flMKslfrSJ9e/WI1Hk3rsrDL6I4V3PYG6frCcbX2eYQF0kvKzeu+ll2usdg53rm/dOFLLIWDmgn38zMcuh42JYgzBjc6uQZhMMGaa4J0ipLPPVT+hjdUixIz2ytatPW9qt24JcgCn8/Xo8+eftgZg1TBEEC7PEX0bcLfSQJ2KdSunLx5TgmilhPBoorYowT698fknFp4a+2GSPW61P3vFn36fOolXqRMVzg7jRK46TEZUDfH6w3cOMUWfIy0HYoTOhVNfuvTpuhmkPpdn4baEMOgHPEeI5zbLVT9ivlDUHeg0o715uP3O3oOs8alWBCuJJOpL5596dnmDh42hiq2BnYEftHhZdNe400rodUESOxMzKVif2WUzsaA0Xy1/6clfPtNckjcpm2u1aHv6ByyzFJL5MyGA78FVzx7FTRXf2r5yfXyL6Wz165kAHJ88+8Lnzn6y2letOo9Kkgpq0drWfLl5OImr3kYdXVe9rZ0Eq/Zi890717xqLYC6JAA4VVV//bmPnUfF8SSRyopCWiqQJISnubKyUQEStP36DlObPnun55tY7DpxAwSDGvkT8z/zy4/97VoLUzQJolm8LmcbzX2u+tGUVcwK8L2ueqqnBjc+mG7++MYbfc0KwIQqiIAPUP/Vy3/p+TNP+mFjCkluzHttr7Y7dJKgZE9VvhcPtTT/JB47sur7d6++fbhD0Nsun3JZ1OUfWzz1Gx/91JJVPnUzO5IDqsid9YV0xaNDbzJF55hI0yMIGq1SgrixeHZpcOrq9lsH8aBizURwJBMOsIjNsZOrSqFsYTgnbIln2bVSrO2GrhloDw/2n1q/fKqaj5KB3rLwDADmbPDM2qXtg/239+9PKwxllMUiQxdSqim2aEbKTEEpNxfNiYTvy7GPUaGHZbMYwv54vBir506fSx30lJO2pWTJLyysrC8sXLl7+657bUOTyYy0FE2XzrtZIvAnXJ5ykCKFnCKoHzUltV8z4hcvbqzXlUN9hkyKJIyUQ+fmL15Yemxra/uO3zms9kMIwWuiSngI8+CoGgvRgiO4hchk7CwyTGkNLZfIs/8hkRS0AYGh2pvsK/pza5crVQmwyg4nRUgjGz65cWng/uDhg22PZlbB3CgyJudMeJIqN4omYzQrLUlkDEeBKXDmmpoJMYR7ezvPrJ7dGM4lFlQ5gulprJIuLSyfXVvf3tm7ebgTDTUrMEwtxFxJKgBR9gBjkOBdJaIvqVcmDgycv3LhzKlBkDhDUXJk6ncKJdcHZ5/aeL6u6r2DvfHexB2e5I8MjQlFqKEgPdNHJ8XgCQXf1qVnwGUpiTfq7v7DjcUzF+ZOT5MMNPulUDbQvMLzpy5dWD6z38T7491DbyQzWVUQcWwzURgVLB0OlS6gZREhw8xgICeCOA22qWmzP37xzMVhgnKWRnm5CoTH86OFj509vzCodw52H0wPJsJwEmoPoBnMECzF2bIUhhoCFcgaClQg0h8DQ/oREAL0Vy5srA0C4gxHrGukpc/WIM7b/DMLH/nIysdODdYivfEmjmOMUU53l8ulKLijAfZgU+VJKsYM0yi6F0lPw1DUxmg6QPNwc/vJ9cfmq3nOwsfZStmBZ0arn9y4/PjKmUWMqoaxiYdNE4UYGVNs6nRH495En7omQBM4lBlMlvDCbeSa6/sTg8kGVl892Kqt/sip06XQXnSdUrGNIHzewkeX1z69dmFjbsGgQ4wP1TSu6B4RGym6RzE60h9P4hUupSkCQiO5EMtyVX74xcdOr9eDXFk70sH10nDzPH4FDAZiD7ub44c7B1tbk+3D6diL2nfCGE6m0+3J/s7hzlaz83C8dRjHYgxmxiDQ5SlS6nnIAODQ488sP/N3n/mNeZs7JqiuXPROCCszgA/94NbB5uZkb78Zj6eNJLTiRdB4Mtk6PHg4PXxwsLczPjxAnAaaVXXuWqfpGIb0mZyCTeinGvzdF3/uF9bPN1LVNQQ91/cByqdATQMwBm5N9m8eHm5P4sH4sPEy9aNr2dhsepMqQl6g9gkdjV86t7Q0qM3r3gZ0o0aLe5elCdMCLU0TeY+2Spxiut3sbY63b27eeW3vjXd2rm42exZspNoRoiWxYVIWogE4GEbb5y+f/ux/8twvjFBJCk4Q0+TaSgDjVEL5zE4iPbmltq+4NT64Nt56897NHz+4c+1wZzd4sMEAISI2uSwRHCESBlNsNsLg7734uY+vrMndrYUCWD9TyT25D2PqhQB6BAVWH4gp39VweZL0M2Z7fBNMru/f/NG9V39479Wb0y1UVUUGJaW+CgqEYhUjwmi//tL5T/7q0z8/RNV4ssZl9Ofs7FkdBVSdSBDvPue9Zvza9v0/u/Hmy5u3t9EMra4cBxUahjpa1pcmvYkXqtF//bHPfmLplGKTDltCgaQ2JGf7NSc9A9//AAb2MBkfvlSB2v/B0m28M7n3jTvf+9M7L+1MdgZVFaGGVWQKWWJjpIfqMHz2zAu/+dTnlsNSI1WdOMRPNlRCruT9CSIKrzy49a9uvPzS9r2R19OqntBrT03znMFN5BdZ/Z3nPvG50+fN5UxzHmgIdPzED/O+ecI/ha+IKUWoSsIvr++9+fvvfPulrWvTAebcEretcm8CJgFQFSd8bunCf/7UF56cuwAgyq0Qjn/Caw50QC5iW/Grd9786tuv7Yyng2oQCSmP0xAYVMunVvuvXP7I3zj39MgAj6LIFMX+tL5+ilIFFkVmCSTI1gdrz55+ymR3H96bIrqlMltoLFBWT2kWrk63Xr1/LdDWF9bmrCpchg/OPy+M3Jz6ElFxHvbC4vpTp87e2t28e7hroYa3rF2jiww7xjfu3rm1tbO0uLQyHFU0yD0rs/1UN0AnGbF3GzlxdAZAcd09KqilOacxKZTJMcLguVOPLY3mXt+6uRUaMwiMNCiY2BDzCHtx+vKDG9e3781Xg8X5hQED28p9rzOBo9Rz9BnQKn1Otj1+IBKM2BiNnt84f/9g7+rullltYjQ40BiEMB9rC/WPJzsv3bq5NZmcml9YrgeBJNzVWSI+Qi6hN/AjJxJFb+eR20dXpBuAaLFHS0gvd4SWr1kZ0uIUe4MlUHCbyoMDlJFopS9KBwzf3XrtX/74a/ewU8PkcNVOK0pIFBhjnPP6meVzn9l45pnVCyuD5bqnoO9CHmXbe7Ck9dbKisee8rD3AheXjHwYp//3a9//49u3UM0JU8GJgTLPgk42kk3ixeH8p06vf/Ls2aeXlpYs9In26DgiYE9ZOb87UJVhaaLsXTfAKQqKnFYYvD/T+p7RUgQUWbWauKaEczQKiM7Kvn//pf/ntT+4P5gGZ3BOLXSxsxfB4ui1h9PDlUurZ59dPnNxYXV5OL9SzQ1VvbtFUHoGMgcC/XHNeRoJ92L831/53u9t3TzVDA0YV5l0lkfB+EC0qMaa6UJVXV5cenJl5clTKxfmRquDeinU9bsuhAuOCEZDbf5u4Ts98cNNr2+/9v373819p6RS1Cr4F70itcSJ/NMOzDSsB6cHp9bm1tfn1tbDqQAgSsyFLsJNLoaYBroLMP3+7e/9izf+2GuZMDUzzUyzNmEaODWqUT1FQBhW9dJofqmem6+GC9WoViij10hgIVTLo/kzc8sX5lZOj+aZDypzifnIXXan2d2m+Qc//OMf7G2POEIaxIN2JrY5GY2Aydl4Q/cBuFzXK8P5lbpaCDYczBXwrYmi+8KgXluaPzc/9/zccCkQaFwiqnfxIMUEmf/hjT/47Xf+X9YGzxX/xmJvzHpG5Wc1lEIlzfUYkbLKw4Cj08ONJ5cvv3D26acXz1YYKSaOrZsLtEhYkjSWnPoXP/76H9z+keaCNRLN1e4oKqeTjQFIqmLmKfuXCsjJ0uqkE9MEozSHanUw9/ipjZ87/fjzq2dXEoiG3eSadgum8prhtZ2t/+VH37nnqBGSFmXOwbwML0OAalFORgV3Y7QGTaQbgmeqVqsbogCN6nBhqfrMyvoXz5y+tFjhuFbIkRsAB0zfuP21f3v1X4cQsjKsrNBF8/9NjzQDFMj8AIMTtMbkZk0Tw1SL1eijqx/5+UufeWJ0Dl6G+xVpBdDcZOKDZucfvPQ7b0zurniYsp0EBQCRFTKYOY2GSNTtAsOCojF3X0GTwcM0YJrwqI2PrPrY4savXH7hhZU1U0wTTmdugsvpYPj3167/X6//qBkM4MrXOnM0E6o8OKraJaihmII3GVAlb5FgryZEgyNrTUybIOn80L58YflXL587E5JkqdQ5wxIF/U9f+S0hGsM7+1dfe/gKQpLkTtI6oUeGlhfaXkdFQ/DCDU/y3IQFBoZqAn9r7/Y7d67MVcOzSxt5NhRpGUDIxNmaD8PRYPCDh1eJCA8FissyjBUdoqbX2HNACiydGYmehsZCQQzgIFQuXjnY+8HdW438yZW1WtYAXhBwBWnmFnFmefmdrYdX9w8rziVEPVWVCn7q7Hth1geXucqytFLU7bC6wpOoWamut9xfvbf9w63DM8tzF4YVGpclxcgZqYLfAtwYruy989rmqyGEniKQ9StK4LH5mUfY0i0uWjBYzXob0x89eCdU4dmlixZb9BhbzDig9fmlqzt3bu5vWag6+HsZlHcEZjI7Q8VKE6FtSGVEt0uVw6rBIfDW3Vu34+HF9Y1lWPA8Ibf1cARGZjY//6NbNycMKV7xVqe6nbHD7q1LeGUzj1Q6/nlOlyDSaBbq+3vj7z+4f3608NjSEPI03chOZMr35lX2p9LxGFe9/wum/t+rFcoi3bzW3tzhV9/65u9d+26slBSHY+FMgIjAnAZ/+dyLQwxTsUsFkv8IBfh+dxrtLyt3/hLcK7kEurshjEfzv3/j6j9743v7TFKoip2wo8EA1yeWVz++tq5mHC1d9x58oZUK6TiXJ3EUuq5nN0o+ghME1ou3D+b+15ff/tbDfbKCkoj8EdxEjs84CyeywpbuFJp6XHWlPlQL1pSzByZEY6oaLMQwrfxfXv+TP9p8RcEK6UOgZ7im9PzKY08vn5/GpnB6ypSDExTg2wdgNy2pbRGrHcvDhuakYrSIubDwnas3/t3bP55WNKHKuS+qIme+CHzh3MVRGqiXe5lEb5ill2FRRRt+5gbk6UVdU95i7s4KYBQWMLoT67//2tW39z0o9BNYe0Qxizoy9+GEzI86DgLsg/fNneZxANYRB19749s3Jg9hTOMCkrQMhSkxYv2x008wd7f6XfUjR/6oYnzLkE1KqG2AQDC4gYhBjbnoh/XC777z1vc37wWS7mKeGAPAjZCeX11bX1mO7kGtSc32UkcRkicrRPYm2GWctsHNp9D0IBwMw/zN7eofvX5r21rOQQ4xwUwIsT6WLYtgwXLfNU2DUYAqyITKs/aTSZSb/Oi0M5MZzMko1RzcHG/+4Y0fNHRrsTUJ0UoA+NjKhTNheT/NFHGTW9LscKRELXPP0/QYiJJFWqtfBZg8s4I9RYdOetaQj/Bgfhv8/SvX9txLrYJt1d+B1Sp88tQpi5panUQaOiZ+4RsnvFsPH1XgujIo0A0KnU48gqeYAEZU0qSuBt+4u/8n93aTpnmcHY3bp34noQh2E+eVUS6eq6d5coBy98dOuBy5IpFuJyKsqe1Ht96+vv8gfeLcBC9sxPXh0vnF9RjdENiBO/peFz3GWY89eZS7Yh3XSmWckEj3MBi+cu/eS/fvwozqJC7bgP/Z1bWRhYgOW9ZBsnESL7OLyqyw3nuwHS8DtZJ6EhzkGPU33rm970cw9bPGp/zjo9y50r8swmqFNz5D7EbnglyIGUFuAszCg2b/R3ff9lljlkqeNcOFxdVBUuRnbyzMDPB2RiEGRxVijiN5i7ITaAgGbQf/4zs3D2YBSZ1gyuLyclWpaTzNT+wN5S2gcOszFfqM1E5IIi8g+zonMgkWIqyqfrjTvLJzCII+bQPKrhWvlDimA94S9a0gSixk/f1WxUHH9XPy9HZXZ9OS2t+0wmtbN3cwJk4YF3px4VTtyex0cOsO7zarENMWLXoKMZal/NR1dTNZnkGsDO6D+uWt7duTCWa1ItIQsTOh2piblwCG2MeysS+4YC0NxoUOm5ElItpgKY+bLAVZAYEQzO97+OHdfQcIl45LNpwwLT2HIn1W5iN8o7Vc9Z6YTVY6qNwY7O7BwwcHm7lXMnsCT88tDVlljdsZfYwjXpetAuAsa27m4fv4fQBTktGDsNXoxtb2kbYiQZfmyY3lJbTRoDjL3Tyh+ykgIe8dPfzdDFs2lVXMYY5omhqqK/cPt0pX0vqaOWrlYZgLPlSWikvKcW0GmFWKjijEZIBrSgTM09jFXnhgsu1m/HC8d6JM8nyYW6jmp+jYkTMKMQld2weeJuJ4b6SXZ8pq0dQpwKwsfkMLCvuxubm/c3wtHQSxVlWNIrPuialF1rSCGxknmhUpSsyKTldFnLGf5ayaFI0mVuDVqR9MIlAd17gvnkftIMIyE49d8IIOmnmUs8jMhi4o2p4RjwBlE2lrcnBi62dg9TDUTVLzyxfMehSBbma2uhiSXbFE7ZO3MXtZHaVpqpY2aaeZHoWUluOwIMrCDAz5mExZYeO0aMN2nBv7Y0Vnyk5MU1MJBRrvxqZpPAHGqhPyOs1MyJ6pDB61PN2wxiQR5sJRkowst50tzZOB6+SmgplZaG1ImGVjdyOeyaQeqBQjzhDzlSUbugmnMO+S/LKjrkdlNcPBIFhVKqyziWo7uKJXd/FCzk5hC/nezXsCHj0W61kdaSNYO4pTiZ5usrY+cYQxWrxuUvCdmavO7LjUoqOz6menJHYinAI9DabegHgVAZC0+j1Ke7rEQjc+PTOBWhGTQiI/lipq9gILgGpaOaozv59V7pC59uy2vH3TnpDPe+2BepJo1TGiXHc28ryYzuse98+Jq555W0mWt8ya6/eN++Uj6V2Gq6AoDpSqoRepApaD1i+Gq33gLiBJFaEiM9NeHRmIR6T0vZm2OjLz/dgQ+QJzpzqO+OyyvHfH0LuJz7ku0n+ItvDZt4A6pl2HVqNEpYLmBdIpdADXI27Gebyl3rubaJH6fctTcMiep0L1dCELbZOtgWLHXm7b9NlGq9WRPCGiKSmDgz1VQ6rTykpXLXcMOxUnSScOtHlXK8SeVEEatp7XrwxjDuV8EYTcTuKqp0paLkP22Dk9rnpf6auTnDt5A4LQlAX33jwr5Ylf7GmXZaSi0+RZN6rQBfKBMPWVvVIZsXFBCEXvZparpUKIN0mWGCE5j8810Ux1zivDPOG753U/AGTGjqsmDsOISi0IzlaDcYLdL1h3n8kP342r/t6Tp2gDVAIbY18tpuOqdxoUOcDt9Biy49URelrLVZ/9FPYIvCCC3NxjeY2S7M+kF8qlYJQG5l8IMVS193G+XqgxmLpkppymqS9iplmNEsxyFmcVYtg5j25+aIrcHyn9Mwz1YjWUK1ZZdi/NkMht9xLzqGTJxbtba3xUctGs7Ko+V73z7SdiONOnmwthCB4k1naGOnXTONW6ei99pfdt999FISYHVwujxWEYQVnfnsSsJiFaItyMRGFnFqxf2jvOVVdW/38klGUIOzVYCHmiatYL7VrQufDQ46Cx3zWynCV1XPVON8v7Ca06Fcfjh+D0wsICQ+Z/lavjrUTEUa9rf/EbYG0Qtjq3ujRacpVT38r8txS7TlWUPVm7MjpYJyrKdHPVlSqsXeFMx4DXuHDqtNEYad7rgOb71I5sOD4zOykL9syU2kt5hN78yPUiAMTV+cHq/JxcWTAeKFownT+T9OgeyQffAKJKHcpTXHhy4XLjjdMHTS1lJWP0hhEbmQYrwHNW6WlibPK6XjQSujihnQJPKOftetQCCM8ubywO5hEhWszZZkhk86zLQSrpq8sSVz2ffU/th2BIXPUyX15Z3tfdIMvDRU/CI4tE5Grg02vzbCQaVTuCG6pYWZojrwClTlrA+1Whej83oOhSvXD62UXON9ZMg0s1NasQk3SYO/UQzirZoDDlTxI2mpFYsONnJxWlL42WPr54Zp9x2sqv58KvlXtmM163SMR3QXym0M7WrpPIOCm9y/wriAzAF9Y3FqtoEXUMgxhC5KRC5Ixo7YcJYe7oFcBTS489s3yZE8XKoRqqSq7LpHcQ1bYmegt6VJet66rrqN7Vu8LZiSHwC+efnDdLTLMkWuNlSszRmKfA61vP2jbEW+fkgHtLnC0u+oSTK0oywvWxxbkX1xYONBnXIZoFt6zPKv7FXe4jNyBlAENWn3/8s6vxVDvjvuimlRm8bXOO1hUb0OeqJ5RKuRZ9rrqO3IBjeQAJx7NrGz+/eqkaNznwaJPPXn0/jzKBRaEd1J646ugpxGSp8dy6gHJ1hY8STkz062GF33ji4nrARIdNQIuS+EDFhg9+A9JD+vSZxcufufTpMAGsKR+sKOeqX49MkuGa5Xe06qa5BMajZfp3TQMcogfw1x//2Pm5lYlHOya/lybUk0WjQugUYjijEOMtj7dolJQUhyfGYJ41WX2q+Onl+b9+6eLCeJymWTqgnk7Gh0sUsJnvWQ2EL1/62Y+vvzAdT42C1JCRNA9ZB62dn5ARelYwI6n/xVZazmUxd9XNaTGL25Rw/gQrkGRjdWFu7m89++IyrZl6pYqwWNo8iZOdGMBWRrdnhRgFFPn9rBDDVqWgDCRS1Y67mA1CzcgAgCHQzPGbT6x/4dzqdBzHHBmSTEAwp/mHTCmanW1GAljG6K8+86WPrj57OImAjaY2bDBTaSgZOWYUYvoZbzdqehbL1k9xdfT6Z4wCJX1q7fx/8cwn5007nJqqKtZB9cDrgVdwTogpS+VH1lPN7ivElIXWLPX40aFLqaNSpgWL/80Ll768PhebvSkXYHCbNkHTwKmZ/zRMUL81dqFa+zvP/8rnz360PmTjmFahqRLDvc3O2vk+fYWYE1UmZ8eq6GQD2k/aAkjpF89c+u9e+MzTNtqL4wbVNAwmVRCMZVQx2kYgO/2YXnskdQG7qQPH0pR3o1q6eK7S//iJS//ppaW56Z6mqjQw1VXkQuO1+4e1AdVxPlJiR6zZ4t9++suXF8999dqf35hs1WRllvgLpTaQa4gFdZyQdFn6nLIka9EqjybqDGmPSoaPWENM9bm1c2c/ufK7r7/69Ye3tp211TISVmfUWMgvnPVqQylMgqUeXsZ2pcFIzsz2sveRQVkDXzf/7z9y6cnVzX/95va17cOmDqyMaOBGhJ/gGhz34NVMNUTtsEhCGmrwpbOfemb18T+98cqP7l25Md060ISt+BNL7Z6eZBWtdckyANHbseTM4yPJaWz8XY1o1wk3RvkTc3N/7+Of+vj929+8fv2trc07cXzAukLq3cdepcFMSSFcnaiwZqacSx7k46jmfVhxskliZQPXb5499cm15W9euffNu9tvHsQ9T/QE5ZmMH3ADfBYPUB2n5KnNjEC6LgzWLjzx8194/BNv7Nx8Z+vOre3NrclBnBl5n+0AFfoAAs1MwUJjRgSz0XI9KFrH79o2Cqhhkgfy8+tnP71+9urB/iub99/Y2b61vzueZLGDmdqnyFYxyuvZ0r/H9AAT36iq5lgrCsdRynkeHujxcoXLT5/5K0+eeW1z8s697TcOmluT6E3j/19lZ6/DIAwD4bs0qtSl7/+oFWp8Hez8IaCEgYEhkTCKDtvf+TS5fhEAvstmNNXmU/3nnnuo9UXZZK7LxNMDDaNvmWothm76x+z2QLf/5GNgCaOc9Al/ec2wZhuU6ElpG7k2yjNMzLInlP3IWqLPY0IwClCAYtK89cJqAhNfdVCQbmwPQKWOCH40WDThjGudSdaOkVqKB2lRUYdJlbl5ALriH2vunBnt/QLJicUvjUBeyuQ0QSUpNRaAB0fnnSuGuZbQfPfjtmdedfX+D94ge4cJFk0vLO7eMG+p9j8fAJwXvuAGd+wC1z5a68LOemUao6bmajgdjvwBsspccuGzERQAAAAASUVORK5CYII=;fillColor=#21C0A5;strokeColor=#006658;fontColor=#5C5C5C;sketch=0;imageBackground=none;" parent="0Nkzdif2Izn_vl99Jlwj-80" vertex="1"><mxGeometry x="29" width="120" height="120" as="geometry"/></mxCell><mxCell id="0Nkzdif2Izn_vl99Jlwj-82" value="CDC - Debezium" style="text;html=1;strokeColor=none;fillColor=none;align=center;verticalAlign=middle;whiteSpace=wrap;rounded=0;fontFamily=Comic Sans MS;fontSize=20;fontColor=#5C5C5C;sketch=0;shadow=0;" parent="0Nkzdif2Izn_vl99Jlwj-80" vertex="1"><mxGeometry y="120" width="176" height="30" as="geometry"/></mxCell><mxCell id="0Nkzdif2Izn_vl99Jlwj-87" style="edgeStyle=orthogonalEdgeStyle;rounded=1;sketch=0;orthogonalLoop=1;jettySize=auto;html=1;fontFamily=Comic Sans MS;fontSize=20;fontColor=#5C5C5C;strokeColor=#006658;fillColor=#21C0A5;" parent="1" source="0Nkzdif2Izn_vl99Jlwj-84" target="0Nkzdif2Izn_vl99Jlwj-1" edge="1"><mxGeometry relative="1" as="geometry"><Array as="points"><mxPoint x="-424" y="540"/></Array></mxGeometry></mxCell><mxCell id="0Nkzdif2Izn_vl99Jlwj-84" value="&lt;font style=&quot;font-size: 20px&quot;&gt;payment-response&lt;/font&gt;" style="sketch=0;points=[[0,0,0],[0.25,0,0],[0.5,0,0],[0.75,0,0],[1,0,0],[0,1,0],[0.25,1,0],[0.5,1,0],[0.75,1,0],[1,1,0],[0,0.25,0],[0,0.5,0],[0,0.75,0],[1,0.25,0],[1,0.5,0],[1,0.75,0]];outlineConnect=0;gradientDirection=north;dashed=0;verticalLabelPosition=bottom;verticalAlign=top;align=center;html=1;fontSize=12;fontStyle=0;aspect=fixed;shape=mxgraph.aws4.resourceIcon;resIcon=mxgraph.aws4.managed_streaming_for_kafka;fontFamily=Comic Sans MS;fillColor=#cdeb8b;strokeColor=#36393d;" parent="1" vertex="1"><mxGeometry x="-463" y="1230" width="78" height="78" as="geometry"/></mxCell><mxCell id="0Nkzdif2Izn_vl99Jlwj-85" style="edgeStyle=orthogonalEdgeStyle;rounded=1;sketch=0;orthogonalLoop=1;jettySize=auto;html=1;fontFamily=Comic Sans MS;fontSize=20;fontColor=#5C5C5C;strokeColor=#006658;fillColor=#21C0A5;" parent="1" source="0Nkzdif2Izn_vl99Jlwj-81" target="0Nkzdif2Izn_vl99Jlwj-84" edge="1"><mxGeometry relative="1" as="geometry"/></mxCell><mxCell id="0Nkzdif2Izn_vl99Jlwj-112" style="edgeStyle=orthogonalEdgeStyle;rounded=1;sketch=0;orthogonalLoop=1;jettySize=auto;html=1;fontFamily=Comic Sans MS;fontSize=20;fontColor=#5C5C5C;strokeColor=#006658;fillColor=#21C0A5;" parent="1" source="0Nkzdif2Izn_vl99Jlwj-95" target="0Nkzdif2Izn_vl99Jlwj-110" edge="1"><mxGeometry relative="1" as="geometry"/></mxCell><mxCell id="0Nkzdif2Izn_vl99Jlwj-95" value="Database Transaction Scope" style="rounded=0;whiteSpace=wrap;html=1;fontFamily=Comic Sans MS;fontSize=20;dashed=1;dashPattern=1 4;verticalAlign=top;fillColor=#cce5ff;strokeColor=#36393d;sketch=1;" parent="1" vertex="1"><mxGeometry x="593" y="1779" width="570" height="290" as="geometry"/></mxCell><mxCell id="0Nkzdif2Izn_vl99Jlwj-96" value="Stock" style="swimlane;fontStyle=0;childLayout=stackLayout;horizontal=1;startSize=30;horizontalStack=0;resizeParent=1;resizeParentMax=0;resizeLast=0;collapsible=1;marginBottom=0;fontFamily=Comic Sans MS;fontSize=20;fillColor=#cce5ff;strokeColor=#36393d;" parent="1" vertex="1"><mxGeometry x="649" y="1864" width="200" height="120" as="geometry"/></mxCell><mxCell id="0Nkzdif2Izn_vl99Jlwj-97" value="id" style="text;strokeColor=none;fillColor=none;align=left;verticalAlign=middle;spacingLeft=4;spacingRight=4;overflow=hidden;points=[[0,0.5],[1,0.5]];portConstraint=eastwest;rotatable=0;dashed=1;dashPattern=1 4;fontFamily=Comic Sans MS;fontSize=20;fontColor=#5C5C5C;" parent="0Nkzdif2Izn_vl99Jlwj-96" vertex="1"><mxGeometry y="30" width="200" height="30" as="geometry"/></mxCell><mxCell id="0Nkzdif2Izn_vl99Jlwj-98" value="product" style="text;strokeColor=none;fillColor=none;align=left;verticalAlign=middle;spacingLeft=4;spacingRight=4;overflow=hidden;points=[[0,0.5],[1,0.5]];portConstraint=eastwest;rotatable=0;dashed=1;dashPattern=1 4;fontFamily=Comic Sans MS;fontSize=20;fontColor=#5C5C5C;" parent="0Nkzdif2Izn_vl99Jlwj-96" vertex="1"><mxGeometry y="60" width="200" height="30" as="geometry"/></mxCell><mxCell id="0Nkzdif2Izn_vl99Jlwj-99" value="quantity" style="text;strokeColor=none;fillColor=none;align=left;verticalAlign=middle;spacingLeft=4;spacingRight=4;overflow=hidden;points=[[0,0.5],[1,0.5]];portConstraint=eastwest;rotatable=0;dashed=1;dashPattern=1 4;fontFamily=Comic Sans MS;fontSize=20;fontColor=#5C5C5C;" parent="0Nkzdif2Izn_vl99Jlwj-96" vertex="1"><mxGeometry y="90" width="200" height="30" as="geometry"/></mxCell><mxCell id="0Nkzdif2Izn_vl99Jlwj-100" value="Outbox" style="swimlane;fontStyle=0;childLayout=stackLayout;horizontal=1;startSize=30;horizontalStack=0;resizeParent=1;resizeParentMax=0;resizeLast=0;collapsible=1;marginBottom=0;fontFamily=Comic Sans MS;fontSize=20;fillColor=#cce5ff;strokeColor=#36393d;" parent="1" vertex="1"><mxGeometry x="899" y="1834" width="226" height="180" as="geometry"/></mxCell><mxCell id="0Nkzdif2Izn_vl99Jlwj-101" value="id" style="text;strokeColor=none;fillColor=none;align=left;verticalAlign=middle;spacingLeft=4;spacingRight=4;overflow=hidden;points=[[0,0.5],[1,0.5]];portConstraint=eastwest;rotatable=0;dashed=1;dashPattern=1 4;fontFamily=Comic Sans MS;fontSize=20;fontColor=#5C5C5C;" parent="0Nkzdif2Izn_vl99Jlwj-100" vertex="1"><mxGeometry y="30" width="226" height="30" as="geometry"/></mxCell><mxCell id="0Nkzdif2Izn_vl99Jlwj-102" value="aggregateType" style="text;strokeColor=none;fillColor=none;align=left;verticalAlign=middle;spacingLeft=4;spacingRight=4;overflow=hidden;points=[[0,0.5],[1,0.5]];portConstraint=eastwest;rotatable=0;dashed=1;dashPattern=1 4;fontFamily=Comic Sans MS;fontSize=20;fontColor=#5C5C5C;" parent="0Nkzdif2Izn_vl99Jlwj-100" vertex="1"><mxGeometry y="60" width="226" height="30" as="geometry"/></mxCell><mxCell id="0Nkzdif2Izn_vl99Jlwj-103" value="aggregateId" style="text;strokeColor=none;fillColor=none;align=left;verticalAlign=middle;spacingLeft=4;spacingRight=4;overflow=hidden;points=[[0,0.5],[1,0.5]];portConstraint=eastwest;rotatable=0;dashed=1;dashPattern=1 4;fontFamily=Comic Sans MS;fontSize=20;fontColor=#5C5C5C;" parent="0Nkzdif2Izn_vl99Jlwj-100" vertex="1"><mxGeometry y="90" width="226" height="30" as="geometry"/></mxCell><mxCell id="0Nkzdif2Izn_vl99Jlwj-104" value="eventType" style="text;strokeColor=none;fillColor=none;align=left;verticalAlign=middle;spacingLeft=4;spacingRight=4;overflow=hidden;points=[[0,0.5],[1,0.5]];portConstraint=eastwest;rotatable=0;dashed=1;dashPattern=1 4;fontFamily=Comic Sans MS;fontSize=20;fontColor=#5C5C5C;" parent="0Nkzdif2Izn_vl99Jlwj-100" vertex="1"><mxGeometry y="120" width="226" height="30" as="geometry"/></mxCell><mxCell id="0Nkzdif2Izn_vl99Jlwj-105" value="payload" style="text;strokeColor=none;fillColor=none;align=left;verticalAlign=middle;spacingLeft=4;spacingRight=4;overflow=hidden;points=[[0,0.5],[1,0.5]];portConstraint=eastwest;rotatable=0;dashed=1;dashPattern=1 4;fontFamily=Comic Sans MS;fontSize=20;fontColor=#5C5C5C;" parent="0Nkzdif2Izn_vl99Jlwj-100" vertex="1"><mxGeometry y="150" width="226" height="30" as="geometry"/></mxCell><mxCell id="0Nkzdif2Izn_vl99Jlwj-108" style="edgeStyle=orthogonalEdgeStyle;rounded=1;sketch=0;orthogonalLoop=1;jettySize=auto;html=1;fontFamily=Comic Sans MS;fontSize=20;fontColor=#5C5C5C;strokeColor=#006658;fillColor=#21C0A5;" parent="1" source="0Nkzdif2Izn_vl99Jlwj-106" target="0Nkzdif2Izn_vl99Jlwj-95" edge="1"><mxGeometry relative="1" as="geometry"/></mxCell><mxCell id="0Nkzdif2Izn_vl99Jlwj-106" value="" style="image;html=1;image=img/lib/clip_art/computers/Database_128x128.png;fontFamily=Comic Sans MS;fontSize=20;sketch=0;fillColor=#21C0A5;strokeColor=#006658;fontColor=#5C5C5C;" parent="1" vertex="1"><mxGeometry x="839" y="1650" width="80" height="80" as="geometry"/></mxCell><mxCell id="0Nkzdif2Izn_vl99Jlwj-109" value="" style="group;fontColor=#5C5C5C;glass=0;sketch=0;shadow=0;" parent="1" connectable="0" vertex="1"><mxGeometry x="1163" y="1540" width="176" height="150" as="geometry"/></mxCell><mxCell id="0Nkzdif2Izn_vl99Jlwj-110" value="" style="shape=image;verticalLabelPosition=bottom;verticalAlign=top;aspect=fixed;imageAspect=0;image=data:image/png,iVBORw0KGgoAAAANSUhEUgAAAIAAAACACAIAAABMXPacAABDvklEQVR42tS9WZNl2Xkdtta3z7n35lyZWVlzd/Xc6MZIECAAioBAmRQnU7IVGmyFHVY4wsOvMPELbL9IEYqwXzxIIStkTVSIEkFKIAiCBEBiInpCjzXPlXPmvffsb/lh733OuZlZPYCNBycqOhKVWfeeu4dvXGt9lITyJQkE2r9g+wPkvz/xv+UXiAgQIGD44F+CA4RANGAjDNQ9AQyA1Hsm9B40/bWU35dIj/MB3x4A6A4HaApHPt3MFzXz7iJEsP+87/fdKSm9geSx/6If8PEJM1l6SRJABAI+wCo4FKW0eYQgSjzpwz/igxgcUloaEkD9gd5dcKZFdwKIYdpfYh09UpzZABhlkVJ+egbqfR4CSpIANgSACn+hL5WjKLAhqg+wBOlI2fte8Pd6KVHk+38lRTgh+8lXoPfgDlg2J++5B5QkOOE3t15+dedrDB/4nQm4vLbhqeriqYVLq6PH57lWHskhS5vyXgurA9/80e0/3IpXzEQfRlIzn8+UF5RpgcsLJoMjxrBQr6zNnzu9cHGlWq8wBCA1JIXAYmLeZc/GNvnz2z+4sX9FtZtX/d/Xkb1U39wQkGQOqzlYnVs5t3j67PDMos0Vs453OQpVuutgdf3w5T+5/Y+qOihfig+0BSLCwObrML82vPzE/Gef3/jCqfpxIEgiCL7b5xdEsMH4zx/+2+vjlwIHcAoCLH1OkVAAIFo6YXkJZMn8UcFU0azmaKk+fW7x8Y+c+uzTp14Ych5ypxtEWHmIow8jiiKhHz383vc2v11XAzWW1qUsdCgrEiB5/numrQeZfoEKwaphPXe23nj+1OOf2nj+/OgsRblIgGlZrb8K3Y2zyoaD+aquPvgG5E/hHB9w9+rhrVs7f/7q5u88t/7lj575G0u2Ah1AI7yXQSCquh4ONB84gFvrRZT2N1lX0AGJAikTKKYbQUARsfH9zcmth3fuvPbg248tfu7nzv/K00uXQwRgMOZLpUcahqqqB4PhwAYKFfLLpn+T310CRG/votI35oScpEmcxvE7k2tv7N78o7s//vzGi79w4aMrYUWeNoqgl1DliNEXJHePEPQTeGOZaQE2QYgedD/e+ubNf3pt65VfeOzvnZt7yuWm8F72UHLIJQpydaEZBZDp55BywMP0E9FJCfAgEhQqqrIJ+Orut66//uc/d+4vf+HcXxtoCIiKyUceM4hs38wdTqTYJC2vehFXegInweSvBNHzr6cQjgBQRwQ+iA9+78ofvfHwzV97+hefXLhoLjtmBeyIKRB+suMP0I17QdPKZQ6jc7Rz7fBPfveN//nN3R+K5vD3egkrtzSfrGQBRIh0wHN0RNHAFGzl1ZforKgBfegKLlRNVVfVftj5+tXf/Tfv/JMt23RGgUA40YYWw2SElZvXHn86LApRcNLNxHz5smciQCON2d2RstEECw04tJfHN/7xn//Od7dej8ZuV0/cgL9g6DExaxgEAwTEqpljPbyN17721t+/tvsdo+E9LhZnDmO5/tkKi1LaQ87E355CyCibiI3Jg9zksrE8AIsa8vt3/vDrr//bA+17CrPgRDwxCyhvxDbaLzshtEZ/JoTJhz+9hKdUheYaTFlPrZKwgPqWPfztl//Da1tXaOWEfegbQMAUCEP+E1wGjwOrd+L1/3jtH96KPwQoNVCEp0ThaECWXKvDnIEIEIhgMjnhBIwIlEEmBYelvIEwU7AY0oVwUqSjJmRywMKg+s6DP/zWzf9obJTsxJEPnqxcioYoEY50kgwIZUusHAijjDKkz8tKrIQq/bJkrjYygwPuGLG6Hfb/5Ztfvzm+S9J7NuZD2wAAhKd3TAdK9JTihCo8GF/53pXfnmAP6R7wxIioH9i1rq9cBQKytFIogW05qigrYk6WhWM6vXBKwEDfuf7NH+++TEKO4ymn2B72o2cc3v9LK5fD0HPOx+8HU1IIxkB3Dizc2L/31Tf/9JDTfhb3YW7AI1JkRU5DhSub33pz64+RDBSnJ7+1Zj8M4aBnx8beMqUdbr2VKXsN9oN0wRyIVISCD+7X979x42uTeEjAj92/maKCessqdEZDVjKtnMA6keKiXnzb3pXkwCigMaumYl196+GVH9x7k2S7Az/NDcgrYg6A2rfNl+7+3gE2weoRzqAXXCOZkXLSkZxe/nsVm0Ba/giimH5kxXmWjAEkgkRUeHv3rde3XqPRxEc/dABCiQgIkLSyK2nFjCAsyKy8r+SUo70E2XmYAaZkKkU37obpt2+8uq8JU6D1U92A9ERQAKpGoalHt/dfubv3KkAp4JFBEXv+rXf6yg1wFRvXc5vdNyy3X4gpnhZFRNOgmZ820x88/LOpxsGrdytrpQOerOlsaNAmxsq7jt7N6CfnVsKz/ATRCGnO7K29O+9s32n9/oe7ASp/0MtTCJCiabDnO1d3XyolwBOqoSnEVEo7lS5ySKdPME9HMh11kCo/opVUmVA+bkD5HRhFEcGrUNm1vbcfNveTaTkSBRkkIjInegI9GaT2UipAFEJnXkQpqHxMlT+kGYxuAugGMJKUVbJdTV7bupaDfv1UNqC1J6HYB6RU3Q239t6OiCc6YYd7TlXN5anSwM4rQMUmIK9sz+9lq225nlc2oDjJkDfYtDvdvbt3F0dCYgqQCQA9lZpQdllWAuJUjTCh5+dl5XVmIoh8FHKxpH8/TMSV3XtTjUHqp2CCSnlE7BVyk0GPIPfGD/abh3hUTpDurKfjyFLQZYrnev4w+2GxzYZaFwKRTqRwNjkDlQRPwcY+vbt7/z3zwTa9PxLzOPOlaCOnzmm1rotwIUrKuWS+tEpVCNq9g92tZpyKlB/uBljP7MysiEAStPrAHx42W+m6H9065n+bM6+8uNm15kPNXglsJjKxlBO1IXAJhNIDmGiASRaJ/Wb/WLE+FTFytQxkLwm35MoEykpATMjblKpLmJPXhczV+/j5lZl2BbSt5vAgTtPTVx961Nm3GAC8l9BD1RQH47j36IIYIZA57EmlNwiuXA1qY578H6WzX365uEQRVHckczlBlTzS3fI28RFhaOqpzDSDnPlsneR182nzFFwKniuv7LvrfgdxKlfZvSqtDo90+D5gH2/W/PWSKSIXgUVJIh1yRpSfnfSK6b7HnBYpZVtisqcsxo2Ecok41QIs1+tyQ07l2BbLRsCDh6jYlth4vBh3/DCRs9mWjsU8+XsC8vR05rM2IDsZWnmL5NsgoMqOkzA49ZO73C6AI3rBT0llBcEFSINH2b10pZ3mhCm73HRQUjyjkukoG08yx0WlIasccQkkXOnSKKX+5tbUPnLjJGC2o40jh0YEZbnWipDcTDJacpu1+2X1S+yUgzeWaodMUjptzDshCJxtdSq3Gn5ir4s2eyzbUMyFt4WE927W9407Z9sS7dkoGzxj61CSL84W9YoRS9kQT+rmP6KshXQGwLbYcewjl2wr7Zno6hslm22odRWnGScPVF17WYG0D9TQnw32ux1NXjcHczneJlI6Kj7647dxZCgu2mazG/bsfn6pmG5/a/H7vybl7S/RgQCnIuPRjyl1tkIlcKK1DkwqDWvM7LQspR1wta7IuuVWd6rKgUkG+aSOWAiDn/z492I19b2/IGY0iZSyYiutseNRUCBD13ji7Iuz1HnYfqq2oJO8RS9dyImFlaeyUpYhiclkrJOCAKNVdS11hgigSyQJ68U8JbdhLlyrV0dR8Xl9E1eukamft/cyYQEYhgUiAKLs/TqDLt7vmtfFB2bojLwtCoVUiY1xesJVEgZWD8Kce4u56RUYVFIbMq2mK4Mfcr7T1SpYfOzxOqUBEq2JUfLjT0DYXDWXXGFOLNKO6cjq5xaMSoRWAgfmd5/JD3rVegIy7zxHdsdI1bHV6ty8rTmmVBVSG/CoyRZytTm9QH6OEuoZYFSgTB7ghpRK0ihjqqFbnPp0v9lOgcmR6LPGcLk+S9XiVCC9lP5zpSG9vkEGT+7dAiqU6jzh2RIJctCNXV1aoEMBEDHYnRxOddAvp7ZNx7NhfRjrGNJBNtDkQb2OdL7fpJGlbR9SGdxZQk+JnqKDkgSkVyt1Echaj2vleGppfmNpsOHeeGicJc94lOkX1U921HmefDeJfilfYqqhOeLm+D4Am/X5AoDq7NL52k1okPoqOFIH7lk5onj4lDS08Ws2xJ5L1m3DAJ5+Qdqd7O/HA8wmY+mbjZWNubDQ4MTInOrV+V2InUvoirLpHX3GdZ8YtnYmSAQkG3Ll3MILFgeR0UkwdVfeNeAp4aCX9XL1Oog94IZAWYrG/N7+zWkGMR7dgkuLTyzbCqQuFmKb/uQz5eljqtz6fDbTeafn9+3ypuKT6DQXg7jj+/enW22LvVgVA3B2bmNjdCZDBLuPYL32pIl0pTcq+83OVKprbqdqUpcqKttW9tvCObwFRVRPnfr8SGuQQSH4I45/Z+BMsjYE7OXcygvYb0qQkYGqSN2f3NrT5vEqhhxnhpcvLb0Qp4M+IKW1+6k31S6NukoDnXSYK0Us1u8flNoCXSawQtiN+3f2HhQ0aolKCMlXbPH5taerRuyvV+tmWc6T2lA1lW+zn2jvXPl3bMu63WU6qSmfzdWFhY9cWn9WUxoqg7U1pz725MjJdUKdHWDbsWrLA2rthugeSD48vP1g7ybyae7BihBNc89d+Gxtyyrwt7KRnVfPrpjlZZnhVq72sFsvMMsLx1JTIhDNrz28FdGw1xsUBDkdL557bm20HKMT/UKmpaKC1EJQ863STCTCI4VPKJWSirU7toCdeZJQaf7jG7+2yNWIcWRFIUimaJhALIWj/rKaZa9reStUEmClzM4IM9BkDocQtLiP7Ws7LwEOee7OCoQHmoCnF1786MrPTnxCy3V/uOgJe9D6MaPIZI1SMOSw1kvnIoR1XXVnA6siZIi0ILuyd/X+9CFVRcYGMdsRBsHPDlZ//vRnESUzqIYGUiCRkDDJ64rZ6/bqJz1jCyj19PMjMcoi6AiR5jQvGD2wi3NIc6G5NPrCJ878apjCbRJZRwyFoVCR04I+byO8XqJ0zOvOpIKpXaeUl1LB39p8bc+3iMCZPJwAhpj73KUvnqmemDbmVR1pziDV5Rf63h69xmFJmnjkMFrrkNJxd1mwcPfw/o833wJpHnoIWtIQoM9c/PhHlp/SQZzWPq6aZAldcrF18m2lId0z73X2+32xHpR6xoOe3JQXUWn4M2f/s2dP/ZKPBRvLxo25NKQsYzK7cNuE3DQXerkocy8ilb8diDkqCE5EimY3D955fedlkIgGOuhQcvtSxPnBU3/l8l+b56pHON3pxz5Y27zNlYZeJXymbnGkQJvKeYSNQ/z+3Zf3dUiaCY7Gi42lsGLzv/HUly8NTsfp2CtPnS/vSuU8Zs3Zbw9oNoWcOaniiSYof2+qgDjC6hce/2+fW/6iHQTD2DgWCNXIUJkc8CZUSG7b9rxujj3Yf44M6XGDA0HVlPs/uPNH+9hK9UtHB9kkgMaeX/nULz3166emq+EQRokxsxi6PpQJjGrbhy1UrQ1eDWij6fI7zPVh1eHt7Wsvb75aKjFtUAciwPH43Jnf+OgvPmEbw10agueengEmWupPJESeWhAfWVIW9nraao9jCdBnNiB85StfmWkLUgKHtnhp5cVJ4w92rkcemg2t9YStc4cVvHEpD9BKryp73RJHGEqLirAqgsbNwwfro/Vz80+7IMpkIJ2eWy7E+dHjpxbXbm7f2B7vIgyMFXtdqhZf1cXg/YZ+Ls2nVNbQC9UKGrtyNdOD3Wc2nhthWFo9BekMOHxjsHrh1PkHO1s3DzcVzBhyGCo7dsDLludSFTnbUxMLTgkmIAhfPPfMSj3S0Q0gUsEA0IBLl1Y+sTBa2d2/szt9ODGnhZArOQZUyZalOgkZKGOu1qd2uWX71JZHEqgtoaloDaa7u7tPrj03H5ZT0s1cq2Fux0bbmDt/af3yZDrd2ntwoLECYC4jUQuVYMx+PvezCBKVqaJsYhQZWpNBK+3ZdA6C0TYPdqvh/JNLj7GBAizXr/NporQ6WHrizOVhU93b3dxvxh6oYKXaFtL7Mi0IDSy4UpnlcMCYEhSmZwulIsAvnX16pRr5sRvQJnAEFISzc89dXP3ZkZ1uDg/G0/1JbBqPkdEZI9wFR0Y0izbFwEkllKpI1fAaCJZga22RmSbAONw93Im+f3n145Uqwltwa87nzSkuh9Wn1549u3DOmsHkoImTZuLTCROGO+FCoxAdMVJOyDwGd/qoCYRFs6mxCbkcIoEMrW1szO5tbT62enF9uJxYbk5E0LooXgs2eHr1sUurG0OFycF0PJ7Ext0lV/bMnuEzcnpEAghNoQTmjfLoiGmhBHdEwaQvnX/mVD1qeDJApOPtSIEGQfvx+tX9V2/svr19eG9v+vCgOaCVVFmAMGmmhzhoNJ36NAI0GmsylbGMsrRVErNNQCX4cDr48lP/5c+tfYmNUPUdkjsaQ6VoBBAwxfT2/vXr2+/cOLxxf/xwd3rY9GypiWp02IwnaA40abwxmNdVDAxi3UgI2YsmNFUuZUljPLv0xN/66K9tYFmSGx2qoFwlSyEuEcAGfmO89fb23Ztb925PtramezEqW91MEqErBZaMbMMeCeZQW8JzcT7qf/joF8/NL01Sp/DRHa+ER46Ukblw3aCZ+F70iQjmeo4kd/dJ3Nua3L97eO3O5Mqd3Svbk9uT5gB1kA0cFQu2v6Tf08jam4VlDX7jub/5kcUvSI4Z65kOpVyKUFXuh6MZa9LEKXoVTYETYOKT3WZ/c3/r/t796+MrN3fvbDUHniPN2hEEpYq8EOAA3c0wxmc2XvibT//SnIaFTuROs34OmtprhgQqnmAyiZPi3tHuVs+KFG5WJuvNtA6nxCkb1IlC9q4b0KSoIHctFeHOLpWrZ7Lq3rdTxJ24fefgtSsPXnrrwcv34q1pHStWCaiU2qqEhNqtRjxYw/m/+vx/9dz8C+7RLHRUN0JsBAlmaEFShI60lU74mmDv/sHDNx68/aOtt97Yu3mgwypUphQOQAiMMGASKFo4xOfOfvyvPfULC5hLYUuXGvTbxwkOqpZlZO+Ls3ciI6vl9r6rCepTcNlGmx1Jth9ZyEU3BYCUYCnt8nvTd16+961Xbn/nVryJmkMfuFcxRMjMg4cpWPs0rIczv/7E337y1LP0oBxGFZRB7tK2T5LuJXn886sjs5Cp0Is97L29deNPbnz3x5tv7YcpB6FqahcFJzgxM1CCN/jy+sd+/ZkvLnAUXSHxnokenEG9Tnhp7fVjSvWJe4/CXHkJuAvs4ifkw7wf1rWcqmAQ4t3Dt799+w9fuvftse14qKA6BUM5jzV41IJO/+UnfvnT65+vNJBS1J5pqw4v7YcP8AhqiwSGQ01/+ODVr1375rXDO6yq1HRyhSYkwg0iybG9eOrJ33z2L12sV5tSb0sgIX2gXu0H+ToSBX2IALm0yak4aqN67flTn1yf27h2cGUzbtUMwVsYsyQqcNf23rn/9s50Z23x9EJYTOY/k34YP/gG5BgxAWJqVBfnzzxz+qnY+LXdWx688oRsYWPmCAPZ4SDc2N+8cv/GcG6wMbc2YPHDVlwt//+zAWUJQEbSU/xxev7i46tPHG5P7x7c1rCh167SRJSRVROmN7avXt28qoFW59YHHACQiwkRTv5kR4FkZKRjkfPPrD05qpeuP7i3HWIMDKB5iGYuVZEDcLvZe/n+lf3dg6XFxcV63sjUdcwn6qe6AYI+hIN/BEmSOwKMhFzLPP3U+gsPDjZv795k6Mr6RKhiLQK1tpvtt+6/eX3rejOIc8PRyEZkbuV3BpPv/QBHTCIJOAPt8uL5Uwurb927ucNpRTOhIQVUIgWFahLw+u6dH92/8mCyszScXxnMGTPHlS2FlCf6S35QS1V8gD6MO1ba5G1i398FT8jBSAVu+4OvvvEvfrj5bQ5SnyuITuUCeiquHXoz1OjS4LFnV597bO3xC3OX5m2B7+8xlKntnIGQEaI8l+Ttuw9f/6ev/8dd7YF00cCJmZvVkVVErDCOQqP1sPDs2qWPr16+uLxxargwnyu47wEWdHjJfnM411/a/kIzSpRTtuM3tiZ3mekrhHq05kzVjEV6oGuBEUaxDoNBNRxxqbZhQI0eRb8XNOQVcbnR9prNf/Xjf/zD/e9VdRWaQcIrtuUdlxLkRo3gGAyGZ+pzZ+fPry+snxqsLVQLg1B7hzWjOefCaFgP58JolB8gH9UEWjtyN+Si8Y/vvfLPXv+D/TCphSa9b8bEydJpIBtXjLHm4NRw6exo6bHFtY3R0lI9N1+PzCq1Vs7dGOaHo3kbzIeqzmFABOAyI0vI0VuIbgO8oVU/vP3v/sOt/y1UVX7wFv9UuHC57NUr+SrVYWRmVbDhKJw+s3D60uKTjy89v1pdIELOXwhgmnsjOc11M7s1vfJPXvk/70xvVCFIonJlLXHhmd4xo5o1xliSKVReD2yAMIj51VILSANyiLnTg41LSxcvrz3++OL5eQzKjZwysxh7V8I9mv79tW//u7f/tBnR3EqPkw7lxk5mt5vDoiPKU4FzyHpoNc1aMGTaroFVc/Xw3NLqi4sbz6+dPTucAzBWDEwEBYT08XoXgi5BE3LwZ3f++e/e/IdWh4wRVer4dOTpzJDOdqbVSMgdBhddDZs4p/nV+oknNj756TNfWK/PuAqKqr03Ekk0QsXvbX/737z2zw+rXQJQSG2vVDq2HIDmvmsqsamg1CR5T3/Cgak5FBhDiGHe5i4vn/vUhU+9eOq5eQREzyW7fjQumWPfxv/Hy7/3vc136jrIU0ciYQfY402ijpVEt1xfFJig/lkmhJxaEASnCYgC7Pxo8WdPX/zS+afOjeYR0/sxMtNr2sMQfusrXyEcDNcPXrq6/b2KlTkrMcAIC2CQBTDAAlBJQQhAJVQF52a5Es3AYLXFKm779jvbb1y5/7Zqrc9v1Bj02BYlliAUcXruzM50+/rWdVaZhNRh2Sh1vYTUdfJIj4mIbQEYwSpiINaGeqA5Y63afMBDm9we33/t7lv39jfXlk6v1PMZYtXvbhNyDqxaWVx5487VPTUkvXPk7GA7solxaowp9RJhhS9PE81gA7cAVrCKYcCAUD3Q9OXN26/euWnDuTNLywORLrdSbGG7Ab/1FQqgXdt/9a3d78IsZpBB4tgSSNIIEENkSLosnjqFMEdwWFTwXIWvhQFJq6ebdvPKnTd8Gs+fulhzdCSvdzaAKtUri8tvPHx9z/dKYSvX9525iJ8KmS1OjQqJnyQ64GLqYUTQnZDDPAQNiNFh5df3bly9e3Vlae3saBVSewmYLoER0qnB4r4fvrp53ULo3RLruupMLXkrUY6V0nfmbGT2YOGUeaZF0Op6q5n+4P7Nh83u0+tn5hgiM7qvtwFf+Qoh0G7svfbOzndRKvugQRVhQupBW6KoFVOeqHShUB5ZFLOYlTVktBqma9tvbU4ePrH2TO0j0SOjIYHmTAbBl8Kpw7j/2s4rNWvzwKLTwAL1Aa1ILIQCVS8UsAK+E80Zun5Ziemsqncme69vXTm9uHp2uK6YcRGUwFLQIdfnll95cO2eH855aLK+UK/3KwiBAmGpX2RuOTXJLi5EGmi5PUeLMJF0MlSR9vrmw4OD8cdWz1RGCdaLCOwYT7cln/T6q7nv6IUS0AJBUoqSQc9qiSsJax1rKGjoL935wdff/v1JGAO01FvPkPok3IAXzn58oz43dUWD0zOe6khXPeNxch+w4B5YDFeLQrRCyBBFRoR6sD3e/+2Xvv76/nWGRD5OzZNkCijp9GD5E2eeCpFTg9N4DGYiyJkhfn28V9sNnQGheqs1R5cojsL8129d+Ufv/HAKBMJNj1JL6WPZ+iIuvS5rx1VnT9fCZkxnjugJ0YnJ3ORbd77x/fvfTj3Hfr5nMDg2qrMfWf5EVIKNeNY4OLmrPoM1AouMljp8E45Ag8RQ11e09duv/9FW3CWz2eqRyQngZ04/edoWDwjvBIhO6qqDR/kBHeSeZA8j1JLXADp9MP87t6984+ZVcqb+Zl0RMXN9Wixbywfq2CA9hZgei7ylguQzkuNXT2/kwU3jwd43r/7Bzcl1kp4wVOlGw2QKCM+uPj/H+fwiBf9zUlc9h3zK1LsCxSFnWXOZXEFRQCNoZD/evvHNGz90HkW9pgW7OLf29NIZuawFmve66kdQfi0CzBOPtWxC6VCULk1qt4gT89HUFIe//c5rNw4OQmZ/zN6AdMvaAD83FU7iqssTpE/HNWaKQpwJjBYBMx+YVxXCrenV79/6s1KO7w6sWyPo/PL59bl1TGAZfBASX1U6IT+nCvqhU985bjSsrV9HeD2lBuFPbr52bXyfRvqRwqlqhKfXLtTOkATOjjFVj4FiWuRkbo3rBMJwyyeME9O8Rlcm06/efNt7HRprmTOpX1wkjRKqpwP5zHDVM7jCOq46ZrjqyBpLVYJymgcoWFW//PCl283VALMILyhCQ4CwZIuPjR5vEA0uVCmycZRblfytDAoSxaqcR3skVx1S0fqggrkNFa4329+99+aJ9BBBl5c2Vjg3YcuQpxRK9sMM/s8I3BwoppwRolK9kVaQ6EZlXr9EU4iGaHHI6jt3712ZNiAbxcQhOQp+VuvFQMmO8IQ0Q8DjLAatQFaTtfKQKEFpXQLrB+P7b22/kWGfHc8g9cC5MX8GwaSsRNb6anWA55ZpRLJddEMPRXuEt+Mlk3CSgir++O61/TjmLAclhQOnR0un6oVJdHZswBMXYUa/oFQK0pNYPrjFFWXfoGBADF5ZeHAwffX+vZ4+wkkAdGn2ohWuuma46uxAQbIeTScJUvVwVAUCLMbrD685Io3H20Vri2s1Bp4Q162ZbuEU5cMkrnoWY+y87lGuemHKW+Gu2MRgDHcOtq/tP+x7vhY+PawGqwvLlmO9VAhgn93X553nDDG7SWVMVflvAtO18H3kaM2mtEPENx7c89Lw61TkWrt8UszzSK76LFs6c9VLv7BnNGUQo+nOwb097Z5ADwWWquXahkmghO3pK4JxuS1KkpaUwaSTuOpsuert1aFgkqU++64mN9IGHCtjDmErowXETqNUswSQjgHX4gG9RWWE9vfT4mTrRIJGBjEgkeUtXD3c320i1ZacZlD6OB5mecZk9wCnJ3DV8/EsOi6cQRKmFw+2Ew+2prsg4EfvwKiaH4b5hOLnjEZbNibKAjCZNXccEe49BDk63pblnj5QOQ8VHxzuPKqMvFjNmVDCfOvfPPQkHzop63LvPYuJoh8utg8WSUkWGRw17N54vDttjMGPSBVoJv5NxchWESpB3qzL0YqYaqF2FvkBmY6Vvkt1j+PmcDwdY3BCQ6M2G1bDOElKJjm7VleTae9yOjd2NORImV0OzsyL9VPbqAj5o00TS3C2veVAAEYMtAxnUyc6lYRCy0uxR9gvVpdZda5Uk0rZK6t5dbpnNOJgqqnH9OOqv0gZV6S84CqaSz3tnaNc9YIPEJO2WC4SJNvtrexGVEFdusvjIwivbrJIBiHJBGVqPFsSINPV0Qy7kq1SADKG2WbU3xIFKwmuIiHFjst3wokAzFcDVMGVOjrs4b6sYCJYOGCddcpXo/MHrcYBBLpnIRwAMfN8rAUMVSc54fLYru4tS+Ta8nVncsKOEdfVD9RTTzsm+HiiEZ5xG8UVszNIJ9LEexTieDJXPSW2phwxvldHy8lgmll9tNhsotOUzTZHbKED7cFt18ELEzOfUhTi9HGidt4uFrpvi845zvPrcdVVLGZv+azNyIpPTlKPfG81+jbEyu6rI+nNaOP1zn6JFLO8sWa3RP18MxnRjOJGvzg66wVTebGYsl6Ml3trbVou5XuSmoos8pctXjHnV3C1MtdHz2I1C6QhwZg0gdVWxDpVvMJCbakALcuLCRzZZ5WmiHiGxfl+5IY6tojN5rp27JqWkLQFmeWQ305gT+QWy6Puonoklr5W5kxZrDXIvQAd6sx9i+5OMZhKZ68FqbNdk24DmKMlGCrKPEkppTA77RtLOq6WV5xJly1gv8dgKc2eY5yW0uY08lHQPbVnEJ0P5EmVhplQLYekyT7wJO5KcWMOAzGOzXFJeR55BuSaUZnG0b9Ms8XB3idN4Zkn49mqKihr1fAkNEcFpVYlFmwlqJrCAA+IQp2DHKG3jZbFYIqtsJzrp2PiWX82Re7OGb0HQqgmrBLfLh6rxNZWhWDRDayJ2EV7zpMUYtKtNCnnHEWyNavh5YCtVYkVzdmEAGnPJ0e1IsjQUs5IyTL7U/DceEg3iEDwLli0dotybAy64EqMwbZkiZZTlIR41CMqWfsYc4PFKgykhmyoYHGWdqIeV1/yHO+1dd12oYMnIQex565bChSnsdlrDo9JlxPAgMPFsAxnE+SZ7HBSmaRUJXt8Oc4mKP22RHZL0dCSb8ZN0+iIaEn+fmV+YWBh2slPWALolQtbKPlk4QSiS4nZquO0xeOexmXfFc0StbOaxvLc2ny1CkUBUGU97YtUYS487DYf6Vq4RYvEVCjkSt4MvX8II9ioedjsHhcnEhQQzo3ODn3gVLeLM1W2jquunOtaW5XLpKiWRS32eFvw5H4jBG4eHoxjc6IX2hguLrKO7SHVjNd1oXDBmUrCiRiTZSph3imttHQ59ktk6b6yR1C2tkO6XK+vDx5jkyBgwduCkKyraaiLOPsaSW0NcrarPmO+lTOMeP9gE3A7FoEYcHn5sTkNHI1ohWw8Y/e7D9bp4nRc9SODjWavr6XfltmWT7abw6PlIBLS+mD+8aV1TGMuAvZy3WJ41DvdhYZPc5kDPZmVLkLzXmmawkksSSbxsrkn1p4LsZbSBsw4WG+1UlS46r0AYIYkfFREKIcrnldQd/ceTDDFScqtF5fPbiysKWaMztF4v1WIQV8hxoR356ozaaCFpGgRws50fG97C0BfxVyASzX5zMaFOmdVPaUZ9GUYezzhLFCR/I6K1+0iTh0hseb6eU+uBglrZwL4/KkXV+YvTN0IhFhBWQxGbvR03wsvrqcQUwQmSQ9FNCOdrk4Bnk6XGoTK7M7k1u3JA7TK+5kDwCishLkXzj4LnwMcbAU9TAikWdJCTFz1TiEmt6wTAvgYVz2kd5cnkDBr5zTGN/fuNymfVcHsQGkoxidWL1wYLcZpEwPcaAqOQFVwU9ZiT8UeAwMZkuGl0xRMRg9UEvxN6vpBSd0DYOnae56ygA4flMKslfrSJ9e/WI1Hk3rsrDL6I4V3PYG6frCcbX2eYQF0kvKzeu+ll2usdg53rm/dOFLLIWDmgn38zMcuh42JYgzBjc6uQZhMMGaa4J0ipLPPVT+hjdUixIz2ytatPW9qt24JcgCn8/Xo8+eftgZg1TBEEC7PEX0bcLfSQJ2KdSunLx5TgmilhPBoorYowT698fknFp4a+2GSPW61P3vFn36fOolXqRMVzg7jRK46TEZUDfH6w3cOMUWfIy0HYoTOhVNfuvTpuhmkPpdn4baEMOgHPEeI5zbLVT9ivlDUHeg0o715uP3O3oOs8alWBCuJJOpL5596dnmDh42hiq2BnYEftHhZdNe400rodUESOxMzKVif2WUzsaA0Xy1/6clfPtNckjcpm2u1aHv6ByyzFJL5MyGA78FVzx7FTRXf2r5yfXyL6Wz165kAHJ88+8Lnzn6y2letOo9Kkgpq0drWfLl5OImr3kYdXVe9rZ0Eq/Zi890717xqLYC6JAA4VVV//bmPnUfF8SSRyopCWiqQJISnubKyUQEStP36DlObPnun55tY7DpxAwSDGvkT8z/zy4/97VoLUzQJolm8LmcbzX2u+tGUVcwK8L2ueqqnBjc+mG7++MYbfc0KwIQqiIAPUP/Vy3/p+TNP+mFjCkluzHttr7Y7dJKgZE9VvhcPtTT/JB47sur7d6++fbhD0Nsun3JZ1OUfWzz1Gx/91JJVPnUzO5IDqsid9YV0xaNDbzJF55hI0yMIGq1SgrixeHZpcOrq9lsH8aBizURwJBMOsIjNsZOrSqFsYTgnbIln2bVSrO2GrhloDw/2n1q/fKqaj5KB3rLwDADmbPDM2qXtg/239+9PKwxllMUiQxdSqim2aEbKTEEpNxfNiYTvy7GPUaGHZbMYwv54vBir506fSx30lJO2pWTJLyysrC8sXLl7+657bUOTyYy0FE2XzrtZIvAnXJ5ykCKFnCKoHzUltV8z4hcvbqzXlUN9hkyKJIyUQ+fmL15Yemxra/uO3zms9kMIwWuiSngI8+CoGgvRgiO4hchk7CwyTGkNLZfIs/8hkRS0AYGh2pvsK/pza5crVQmwyg4nRUgjGz65cWng/uDhg22PZlbB3CgyJudMeJIqN4omYzQrLUlkDEeBKXDmmpoJMYR7ezvPrJ7dGM4lFlQ5gulprJIuLSyfXVvf3tm7ebgTDTUrMEwtxFxJKgBR9gBjkOBdJaIvqVcmDgycv3LhzKlBkDhDUXJk6ncKJdcHZ5/aeL6u6r2DvfHexB2e5I8MjQlFqKEgPdNHJ8XgCQXf1qVnwGUpiTfq7v7DjcUzF+ZOT5MMNPulUDbQvMLzpy5dWD6z38T7491DbyQzWVUQcWwzURgVLB0OlS6gZREhw8xgICeCOA22qWmzP37xzMVhgnKWRnm5CoTH86OFj509vzCodw52H0wPJsJwEmoPoBnMECzF2bIUhhoCFcgaClQg0h8DQ/oREAL0Vy5srA0C4gxHrGukpc/WIM7b/DMLH/nIysdODdYivfEmjmOMUU53l8ulKLijAfZgU+VJKsYM0yi6F0lPw1DUxmg6QPNwc/vJ9cfmq3nOwsfZStmBZ0arn9y4/PjKmUWMqoaxiYdNE4UYGVNs6nRH495En7omQBM4lBlMlvDCbeSa6/sTg8kGVl892Kqt/sip06XQXnSdUrGNIHzewkeX1z69dmFjbsGgQ4wP1TSu6B4RGym6RzE60h9P4hUupSkCQiO5EMtyVX74xcdOr9eDXFk70sH10nDzPH4FDAZiD7ub44c7B1tbk+3D6diL2nfCGE6m0+3J/s7hzlaz83C8dRjHYgxmxiDQ5SlS6nnIAODQ488sP/N3n/mNeZs7JqiuXPROCCszgA/94NbB5uZkb78Zj6eNJLTiRdB4Mtk6PHg4PXxwsLczPjxAnAaaVXXuWqfpGIb0mZyCTeinGvzdF3/uF9bPN1LVNQQ91/cByqdATQMwBm5N9m8eHm5P4sH4sPEy9aNr2dhsepMqQl6g9gkdjV86t7Q0qM3r3gZ0o0aLe5elCdMCLU0TeY+2Spxiut3sbY63b27eeW3vjXd2rm42exZspNoRoiWxYVIWogE4GEbb5y+f/ux/8twvjFBJCk4Q0+TaSgDjVEL5zE4iPbmltq+4NT64Nt56897NHz+4c+1wZzd4sMEAISI2uSwRHCESBlNsNsLg7734uY+vrMndrYUCWD9TyT25D2PqhQB6BAVWH4gp39VweZL0M2Z7fBNMru/f/NG9V39479Wb0y1UVUUGJaW+CgqEYhUjwmi//tL5T/7q0z8/RNV4ssZl9Ofs7FkdBVSdSBDvPue9Zvza9v0/u/Hmy5u3t9EMra4cBxUahjpa1pcmvYkXqtF//bHPfmLplGKTDltCgaQ2JGf7NSc9A9//AAb2MBkfvlSB2v/B0m28M7n3jTvf+9M7L+1MdgZVFaGGVWQKWWJjpIfqMHz2zAu/+dTnlsNSI1WdOMRPNlRCruT9CSIKrzy49a9uvPzS9r2R19OqntBrT03znMFN5BdZ/Z3nPvG50+fN5UxzHmgIdPzED/O+ecI/ha+IKUWoSsIvr++9+fvvfPulrWvTAebcEretcm8CJgFQFSd8bunCf/7UF56cuwAgyq0Qjn/Caw50QC5iW/Grd9786tuv7Yyng2oQCSmP0xAYVMunVvuvXP7I3zj39MgAj6LIFMX+tL5+ilIFFkVmCSTI1gdrz55+ymR3H96bIrqlMltoLFBWT2kWrk63Xr1/LdDWF9bmrCpchg/OPy+M3Jz6ElFxHvbC4vpTp87e2t28e7hroYa3rF2jiww7xjfu3rm1tbO0uLQyHFU0yD0rs/1UN0AnGbF3GzlxdAZAcd09KqilOacxKZTJMcLguVOPLY3mXt+6uRUaMwiMNCiY2BDzCHtx+vKDG9e3781Xg8X5hQED28p9rzOBo9Rz9BnQKn1Otj1+IBKM2BiNnt84f/9g7+rullltYjQ40BiEMB9rC/WPJzsv3bq5NZmcml9YrgeBJNzVWSI+Qi6hN/AjJxJFb+eR20dXpBuAaLFHS0gvd4SWr1kZ0uIUe4MlUHCbyoMDlJFopS9KBwzf3XrtX/74a/ewU8PkcNVOK0pIFBhjnPP6meVzn9l45pnVCyuD5bqnoO9CHmXbe7Ck9dbKisee8rD3AheXjHwYp//3a9//49u3UM0JU8GJgTLPgk42kk3ixeH8p06vf/Ls2aeXlpYs9In26DgiYE9ZOb87UJVhaaLsXTfAKQqKnFYYvD/T+p7RUgQUWbWauKaEczQKiM7Kvn//pf/ntT+4P5gGZ3BOLXSxsxfB4ui1h9PDlUurZ59dPnNxYXV5OL9SzQ1VvbtFUHoGMgcC/XHNeRoJ92L831/53u9t3TzVDA0YV5l0lkfB+EC0qMaa6UJVXV5cenJl5clTKxfmRquDeinU9bsuhAuOCEZDbf5u4Ts98cNNr2+/9v373819p6RS1Cr4F70itcSJ/NMOzDSsB6cHp9bm1tfn1tbDqQAgSsyFLsJNLoaYBroLMP3+7e/9izf+2GuZMDUzzUyzNmEaODWqUT1FQBhW9dJofqmem6+GC9WoViij10hgIVTLo/kzc8sX5lZOj+aZDypzifnIXXan2d2m+Qc//OMf7G2POEIaxIN2JrY5GY2Aydl4Q/cBuFzXK8P5lbpaCDYczBXwrYmi+8KgXluaPzc/9/zccCkQaFwiqnfxIMUEmf/hjT/47Xf+X9YGzxX/xmJvzHpG5Wc1lEIlzfUYkbLKw4Cj08ONJ5cvv3D26acXz1YYKSaOrZsLtEhYkjSWnPoXP/76H9z+keaCNRLN1e4oKqeTjQFIqmLmKfuXCsjJ0uqkE9MEozSHanUw9/ipjZ87/fjzq2dXEoiG3eSadgum8prhtZ2t/+VH37nnqBGSFmXOwbwML0OAalFORgV3Y7QGTaQbgmeqVqsbogCN6nBhqfrMyvoXz5y+tFjhuFbIkRsAB0zfuP21f3v1X4cQsjKsrNBF8/9NjzQDFMj8AIMTtMbkZk0Tw1SL1eijqx/5+UufeWJ0Dl6G+xVpBdDcZOKDZucfvPQ7b0zurniYsp0EBQCRFTKYOY2GSNTtAsOCojF3X0GTwcM0YJrwqI2PrPrY4savXH7hhZU1U0wTTmdugsvpYPj3167/X6//qBkM4MrXOnM0E6o8OKraJaihmII3GVAlb5FgryZEgyNrTUybIOn80L58YflXL587E5JkqdQ5wxIF/U9f+S0hGsM7+1dfe/gKQpLkTtI6oUeGlhfaXkdFQ/DCDU/y3IQFBoZqAn9r7/Y7d67MVcOzSxt5NhRpGUDIxNmaD8PRYPCDh1eJCA8FissyjBUdoqbX2HNACiydGYmehsZCQQzgIFQuXjnY+8HdW438yZW1WtYAXhBwBWnmFnFmefmdrYdX9w8rziVEPVWVCn7q7Hth1geXucqytFLU7bC6wpOoWamut9xfvbf9w63DM8tzF4YVGpclxcgZqYLfAtwYruy989rmqyGEniKQ9StK4LH5mUfY0i0uWjBYzXob0x89eCdU4dmlixZb9BhbzDig9fmlqzt3bu5vWag6+HsZlHcEZjI7Q8VKE6FtSGVEt0uVw6rBIfDW3Vu34+HF9Y1lWPA8Ibf1cARGZjY//6NbNycMKV7xVqe6nbHD7q1LeGUzj1Q6/nlOlyDSaBbq+3vj7z+4f3608NjSEPI03chOZMr35lX2p9LxGFe9/wum/t+rFcoi3bzW3tzhV9/65u9d+26slBSHY+FMgIjAnAZ/+dyLQwxTsUsFkv8IBfh+dxrtLyt3/hLcK7kEurshjEfzv3/j6j9743v7TFKoip2wo8EA1yeWVz++tq5mHC1d9x58oZUK6TiXJ3EUuq5nN0o+ghME1ou3D+b+15ff/tbDfbKCkoj8EdxEjs84CyeywpbuFJp6XHWlPlQL1pSzByZEY6oaLMQwrfxfXv+TP9p8RcEK6UOgZ7im9PzKY08vn5/GpnB6ypSDExTg2wdgNy2pbRGrHcvDhuakYrSIubDwnas3/t3bP55WNKHKuS+qIme+CHzh3MVRGqiXe5lEb5ill2FRRRt+5gbk6UVdU95i7s4KYBQWMLoT67//2tW39z0o9BNYe0Qxizoy9+GEzI86DgLsg/fNneZxANYRB19749s3Jg9hTOMCkrQMhSkxYv2x008wd7f6XfUjR/6oYnzLkE1KqG2AQDC4gYhBjbnoh/XC777z1vc37wWS7mKeGAPAjZCeX11bX1mO7kGtSc32UkcRkicrRPYm2GWctsHNp9D0IBwMw/zN7eofvX5r21rOQQ4xwUwIsT6WLYtgwXLfNU2DUYAqyITKs/aTSZSb/Oi0M5MZzMko1RzcHG/+4Y0fNHRrsTUJ0UoA+NjKhTNheT/NFHGTW9LscKRELXPP0/QYiJJFWqtfBZg8s4I9RYdOetaQj/Bgfhv8/SvX9txLrYJt1d+B1Sp88tQpi5panUQaOiZ+4RsnvFsPH1XgujIo0A0KnU48gqeYAEZU0qSuBt+4u/8n93aTpnmcHY3bp34noQh2E+eVUS6eq6d5coBy98dOuBy5IpFuJyKsqe1Ht96+vv8gfeLcBC9sxPXh0vnF9RjdENiBO/peFz3GWY89eZS7Yh3XSmWckEj3MBi+cu/eS/fvwozqJC7bgP/Z1bWRhYgOW9ZBsnESL7OLyqyw3nuwHS8DtZJ6EhzkGPU33rm970cw9bPGp/zjo9y50r8swmqFNz5D7EbnglyIGUFuAszCg2b/R3ff9lljlkqeNcOFxdVBUuRnbyzMDPB2RiEGRxVijiN5i7ITaAgGbQf/4zs3D2YBSZ1gyuLyclWpaTzNT+wN5S2gcOszFfqM1E5IIi8g+zonMgkWIqyqfrjTvLJzCII+bQPKrhWvlDimA94S9a0gSixk/f1WxUHH9XPy9HZXZ9OS2t+0wmtbN3cwJk4YF3px4VTtyex0cOsO7zarENMWLXoKMZal/NR1dTNZnkGsDO6D+uWt7duTCWa1ItIQsTOh2piblwCG2MeysS+4YC0NxoUOm5ElItpgKY+bLAVZAYEQzO97+OHdfQcIl45LNpwwLT2HIn1W5iN8o7Vc9Z6YTVY6qNwY7O7BwwcHm7lXMnsCT88tDVlljdsZfYwjXpetAuAsa27m4fv4fQBTktGDsNXoxtb2kbYiQZfmyY3lJbTRoDjL3Tyh+ykgIe8dPfzdDFs2lVXMYY5omhqqK/cPt0pX0vqaOWrlYZgLPlSWikvKcW0GmFWKjijEZIBrSgTM09jFXnhgsu1m/HC8d6JM8nyYW6jmp+jYkTMKMQld2weeJuJ4b6SXZ8pq0dQpwKwsfkMLCvuxubm/c3wtHQSxVlWNIrPuialF1rSCGxknmhUpSsyKTldFnLGf5ayaFI0mVuDVqR9MIlAd17gvnkftIMIyE49d8IIOmnmUs8jMhi4o2p4RjwBlE2lrcnBi62dg9TDUTVLzyxfMehSBbma2uhiSXbFE7ZO3MXtZHaVpqpY2aaeZHoWUluOwIMrCDAz5mExZYeO0aMN2nBv7Y0Vnyk5MU1MJBRrvxqZpPAHGqhPyOs1MyJ6pDB61PN2wxiQR5sJRkowst50tzZOB6+SmgplZaG1ImGVjdyOeyaQeqBQjzhDzlSUbugmnMO+S/LKjrkdlNcPBIFhVKqyziWo7uKJXd/FCzk5hC/nezXsCHj0W61kdaSNYO4pTiZ5usrY+cYQxWrxuUvCdmavO7LjUoqOz6menJHYinAI9DabegHgVAZC0+j1Ke7rEQjc+PTOBWhGTQiI/lipq9gILgGpaOaozv59V7pC59uy2vH3TnpDPe+2BepJo1TGiXHc28ryYzuse98+Jq555W0mWt8ya6/eN++Uj6V2Gq6AoDpSqoRepApaD1i+Gq33gLiBJFaEiM9NeHRmIR6T0vZm2OjLz/dgQ+QJzpzqO+OyyvHfH0LuJz7ku0n+ItvDZt4A6pl2HVqNEpYLmBdIpdADXI27Gebyl3rubaJH6fctTcMiep0L1dCELbZOtgWLHXm7b9NlGq9WRPCGiKSmDgz1VQ6rTykpXLXcMOxUnSScOtHlXK8SeVEEatp7XrwxjDuV8EYTcTuKqp0paLkP22Dk9rnpf6auTnDt5A4LQlAX33jwr5Ylf7GmXZaSi0+RZN6rQBfKBMPWVvVIZsXFBCEXvZparpUKIN0mWGCE5j8810Ux1zivDPOG753U/AGTGjqsmDsOISi0IzlaDcYLdL1h3n8kP342r/t6Tp2gDVAIbY18tpuOqdxoUOcDt9Biy49URelrLVZ/9FPYIvCCC3NxjeY2S7M+kF8qlYJQG5l8IMVS193G+XqgxmLpkppymqS9iplmNEsxyFmcVYtg5j25+aIrcHyn9Mwz1YjWUK1ZZdi/NkMht9xLzqGTJxbtba3xUctGs7Ko+V73z7SdiONOnmwthCB4k1naGOnXTONW6ei99pfdt999FISYHVwujxWEYQVnfnsSsJiFaItyMRGFnFqxf2jvOVVdW/38klGUIOzVYCHmiatYL7VrQufDQ46Cx3zWynCV1XPVON8v7Ca06Fcfjh+D0wsICQ+Z/lavjrUTEUa9rf/EbYG0Qtjq3ujRacpVT38r8txS7TlWUPVm7MjpYJyrKdHPVlSqsXeFMx4DXuHDqtNEYad7rgOb71I5sOD4zOykL9syU2kt5hN78yPUiAMTV+cHq/JxcWTAeKFownT+T9OgeyQffAKJKHcpTXHhy4XLjjdMHTS1lJWP0hhEbmQYrwHNW6WlibPK6XjQSujihnQJPKOftetQCCM8ubywO5hEhWszZZkhk86zLQSrpq8sSVz2ffU/th2BIXPUyX15Z3tfdIMvDRU/CI4tE5Grg02vzbCQaVTuCG6pYWZojrwClTlrA+1Whej83oOhSvXD62UXON9ZMg0s1NasQk3SYO/UQzirZoDDlTxI2mpFYsONnJxWlL42WPr54Zp9x2sqv58KvlXtmM163SMR3QXym0M7WrpPIOCm9y/wriAzAF9Y3FqtoEXUMgxhC5KRC5Ixo7YcJYe7oFcBTS489s3yZE8XKoRqqSq7LpHcQ1bYmegt6VJet66rrqN7Vu8LZiSHwC+efnDdLTLMkWuNlSszRmKfA61vP2jbEW+fkgHtLnC0u+oSTK0oywvWxxbkX1xYONBnXIZoFt6zPKv7FXe4jNyBlAENWn3/8s6vxVDvjvuimlRm8bXOO1hUb0OeqJ5RKuRZ9rrqO3IBjeQAJx7NrGz+/eqkaNznwaJPPXn0/jzKBRaEd1J646ugpxGSp8dy6gHJ1hY8STkz062GF33ji4nrARIdNQIuS+EDFhg9+A9JD+vSZxcufufTpMAGsKR+sKOeqX49MkuGa5Xe06qa5BMajZfp3TQMcogfw1x//2Pm5lYlHOya/lybUk0WjQugUYjijEOMtj7dolJQUhyfGYJ41WX2q+Onl+b9+6eLCeJymWTqgnk7Gh0sUsJnvWQ2EL1/62Y+vvzAdT42C1JCRNA9ZB62dn5ARelYwI6n/xVZazmUxd9XNaTGL25Rw/gQrkGRjdWFu7m89++IyrZl6pYqwWNo8iZOdGMBWRrdnhRgFFPn9rBDDVqWgDCRS1Y67mA1CzcgAgCHQzPGbT6x/4dzqdBzHHBmSTEAwp/mHTCmanW1GAljG6K8+86WPrj57OImAjaY2bDBTaSgZOWYUYvoZbzdqehbL1k9xdfT6Z4wCJX1q7fx/8cwn5007nJqqKtZB9cDrgVdwTogpS+VH1lPN7ivElIXWLPX40aFLqaNSpgWL/80Ll768PhebvSkXYHCbNkHTwKmZ/zRMUL81dqFa+zvP/8rnz360PmTjmFahqRLDvc3O2vk+fYWYE1UmZ8eq6GQD2k/aAkjpF89c+u9e+MzTNtqL4wbVNAwmVRCMZVQx2kYgO/2YXnskdQG7qQPH0pR3o1q6eK7S//iJS//ppaW56Z6mqjQw1VXkQuO1+4e1AdVxPlJiR6zZ4t9++suXF8999dqf35hs1WRllvgLpTaQa4gFdZyQdFn6nLIka9EqjybqDGmPSoaPWENM9bm1c2c/ufK7r7/69Ye3tp211TISVmfUWMgvnPVqQylMgqUeXsZ2pcFIzsz2sveRQVkDXzf/7z9y6cnVzX/95va17cOmDqyMaOBGhJ/gGhz34NVMNUTtsEhCGmrwpbOfemb18T+98cqP7l25Md060ISt+BNL7Z6eZBWtdckyANHbseTM4yPJaWz8XY1o1wk3RvkTc3N/7+Of+vj929+8fv2trc07cXzAukLq3cdepcFMSSFcnaiwZqacSx7k46jmfVhxskliZQPXb5499cm15W9euffNu9tvHsQ9T/QE5ZmMH3ADfBYPUB2n5KnNjEC6LgzWLjzx8194/BNv7Nx8Z+vOre3NrclBnBl5n+0AFfoAAs1MwUJjRgSz0XI9KFrH79o2Cqhhkgfy8+tnP71+9urB/iub99/Y2b61vzueZLGDmdqnyFYxyuvZ0r/H9AAT36iq5lgrCsdRynkeHujxcoXLT5/5K0+eeW1z8s697TcOmluT6E3j/19lZ6/DIAwD4bs0qtSl7/+oFWp8Hez8IaCEgYEhkTCKDtvf+TS5fhEAvstmNNXmU/3nnnuo9UXZZK7LxNMDDaNvmWothm76x+z2QLf/5GNgCaOc9Al/ec2wZhuU6ElpG7k2yjNMzLInlP3IWqLPY0IwClCAYtK89cJqAhNfdVCQbmwPQKWOCH40WDThjGudSdaOkVqKB2lRUYdJlbl5ALriH2vunBnt/QLJicUvjUBeyuQ0QSUpNRaAB0fnnSuGuZbQfPfjtmdedfX+D94ge4cJFk0vLO7eMG+p9j8fAJwXvuAGd+wC1z5a68LOemUao6bmajgdjvwBsspccuGzERQAAAAASUVORK5CYII=;fillColor=#21C0A5;strokeColor=#006658;fontColor=#5C5C5C;sketch=0;imageBackground=none;" parent="0Nkzdif2Izn_vl99Jlwj-109" vertex="1"><mxGeometry x="29" width="120" height="120" as="geometry"/></mxCell><mxCell id="0Nkzdif2Izn_vl99Jlwj-111" value="CDC - Debezium" style="text;html=1;strokeColor=none;fillColor=none;align=center;verticalAlign=middle;whiteSpace=wrap;rounded=0;fontFamily=Comic Sans MS;fontSize=20;fontColor=#5C5C5C;sketch=0;shadow=0;" parent="0Nkzdif2Izn_vl99Jlwj-109" vertex="1"><mxGeometry y="120" width="176" height="30" as="geometry"/></mxCell><mxCell id="0Nkzdif2Izn_vl99Jlwj-115" style="edgeStyle=orthogonalEdgeStyle;rounded=1;sketch=0;orthogonalLoop=1;jettySize=auto;html=1;fontFamily=Comic Sans MS;fontSize=20;fontColor=#5C5C5C;strokeColor=#006658;fillColor=#21C0A5;" parent="1" source="0Nkzdif2Izn_vl99Jlwj-113" target="0Nkzdif2Izn_vl99Jlwj-1" edge="1"><mxGeometry relative="1" as="geometry"><Array as="points"><mxPoint x="1249" y="540"/></Array></mxGeometry></mxCell><mxCell id="0Nkzdif2Izn_vl99Jlwj-113" value="&lt;font style=&quot;font-size: 20px&quot;&gt;shipment-response&lt;/font&gt;" style="sketch=0;points=[[0,0,0],[0.25,0,0],[0.5,0,0],[0.75,0,0],[1,0,0],[0,1,0],[0.25,1,0],[0.5,1,0],[0.75,1,0],[1,1,0],[0,0.25,0],[0,0.5,0],[0,0.75,0],[1,0.25,0],[1,0.5,0],[1,0.75,0]];outlineConnect=0;gradientDirection=north;dashed=0;verticalLabelPosition=bottom;verticalAlign=top;align=center;html=1;fontSize=12;fontStyle=0;aspect=fixed;shape=mxgraph.aws4.resourceIcon;resIcon=mxgraph.aws4.managed_streaming_for_kafka;fontFamily=Comic Sans MS;fillColor=#cce5ff;strokeColor=#36393d;" parent="1" vertex="1"><mxGeometry x="1213" y="1230" width="78" height="78" as="geometry"/></mxCell><mxCell id="0Nkzdif2Izn_vl99Jlwj-114" style="edgeStyle=orthogonalEdgeStyle;rounded=1;sketch=0;orthogonalLoop=1;jettySize=auto;html=1;fontFamily=Comic Sans MS;fontSize=20;fontColor=#5C5C5C;strokeColor=#006658;fillColor=#21C0A5;" parent="1" source="0Nkzdif2Izn_vl99Jlwj-110" target="0Nkzdif2Izn_vl99Jlwj-113" edge="1"><mxGeometry relative="1" as="geometry"/></mxCell></root></mxGraphModel></diagram></mxfile>